<svg xmlns="http://www.w3.org/2000/svg" viewBox="0 0 512 512"><path d="M147.064 294.128h54.468v43.574c0 8.07-2.924 15.455-7.77 21.155-15.737 18.51-24.91 41.7-24.91 65.993 0 6.017-4.877 10.894-10.894 10.894v21.787h-43.574l7.883-15.764c1.845-3.69 5.618-6.022 9.743-6.022h15.055V294.128z" fill="#40332B"/><path d="M122.266 441.767l-7.883 15.765h43.574v-21.787h-25.95c-4.124 0-7.896 2.33-9.74 6.022z" fill="#5E4B3D"/><path d="M430.298 294.128H375.83V435.745h-15.055c-4.126 0-7.898 2.33-9.743 6.022l-7.883 15.765h43.573v-21.787c6.017 0 10.894-4.877 10.894-10.894 0-24.294 9.174-47.482 24.91-65.993 4.847-5.7 7.77-13.086 7.77-21.155h54.468v-43.574h-54.467z" fill="#40332B"/><g fill="#5E4B3D"><path d="M386.723 435.745v21.787H343.15l7.882-15.765c1.845-3.69 5.618-6.022 9.743-6.022h25.948z"/><path d="M506.553 163.404v87.15c0 6.016-4.877 10.893-10.894 10.893v-98.043c0-6.017-4.878-10.894-10.895-10.894V337.7c0 8.07-2.924 15.456-7.77 21.156-15.737 18.51-24.91 41.697-24.91 65.993 0 6.016-4.877 10.893-10.894 10.893v21.787h-43.573l7.883-15.765c1.845-3.69 5.618-6.022 9.743-6.022h15.055v-119.83H256V337.7c0 8.07-2.924 15.455-7.77 21.155-15.737 18.51-24.91 41.697-24.91 65.993 0 6.017-4.877 10.894-10.894 10.894v21.787h-43.574l7.883-15.766c1.845-3.69 5.618-6.022 9.743-6.022h15.055V337.7c-42.115 0-76.255-34.142-76.255-76.256H24.043c-7.058 0-13.703-4.013-16.884-10.775-1.194-2.536-1.713-5.338-1.713-8.14v-13.767c0-48.13 39.018-87.15 87.15-87.15h21.786c6.017 0 10.894-4.876 10.894-10.893 0-42.115 34.14-76.255 76.255-76.255 36.01 0 71.717 6.57 105.367 19.39l177.866 67.76c12.033.002 21.787 9.756 21.787 21.79z"/></g><path d="M394.684 107.31c-27.1 64.927-91.187 110.563-165.94 110.563-2.62 0-4.744 2.124-4.744 4.745v17.042c-13.203 0-25.026-5.88-33.016-15.155-3.22 31.952-29.452 57.11-61.872 58.65-2.04-6.882-3.154-14.163-3.154-21.708v-43.574h-.68v-87.98c.447-41.73 34.398-75.424 76.234-75.424 36.01 0 71.717 6.57 105.367 19.39l87.804 33.45z" fill="#6D5740"/><path d="M430.298 314.542v23.16H375.83v-21.787H256v-1.373c15.702-4.042 27.978-16.615 31.593-32.484 1.287-5.644 6.193-9.718 11.982-9.718h87.15c5.788 0 10.694 4.074 11.98 9.718 3.615 15.87 15.89 28.443 31.593 32.484z" fill="#40332B"/><g fill="#937A55"><path d="M495.66 239.66c-12.033 0-21.787 9.754-21.787 21.787s9.754 21.787 21.787 21.787h10.894v-32.68c0-6.017-4.878-10.894-10.894-10.894zM367.32 97.18c-32.958 40.414-83.14 66.224-139.353 66.224-2.62 0-4.745 2.124-4.745 4.745v17.04c-13.203 0-25.026-5.88-33.016-15.154-2.154 21.37-14.608 39.687-32.314 49.945-.676 14.166-8.1 26.563-19.144 34.025-30.512 20.613-57.464 46.06-81.427 74.017l-8.298 9.68c-12.033 0-21.787-9.754-21.787-21.787v-54.469h-3.19c-7.06 0-13.704-4.013-16.885-10.775-1.193-2.534-1.712-5.336-1.712-8.138v-13.767c0-7.005.85-13.807 2.41-20.333-.247-.432-.48-.877-.697-1.336-1.192-2.535-1.71-5.337-1.71-8.14V185.19c0-48.13 39.017-87.15 87.148-87.15h21.787c5.673 0 11.088 1.097 16.058 3.07 11.56-27.406 38.68-46.643 70.29-46.643 36.01 0 71.718 6.57 105.368 19.39l61.22 23.323z"/></g><path d="M157.957 174.298c0 1.862-.12 3.695-.345 5.495.22 1.77.345 3.57.345 5.4v32.68c0 15.04-7.62 28.302-19.212 36.133-30.512 20.613-57.464 46.06-81.427 74.017l-8.298 9.68c-12.033 0-21.787-9.754-21.787-21.787V239.66c0-6.017-4.877-10.894-10.894-10.894H5.446c0-7.005.85-13.807 2.41-20.333-.247-.432-.48-.877-.697-1.336-1.193-2.535-1.712-5.337-1.712-8.14v-13.766c0-48.13 39.018-87.148 87.15-87.148h21.786c24.065 0 43.574 19.51 43.574 43.574v32.682z" fill="#5E4B3D"/><path d="M152.51 141.617h-10.893c-3.008 0-5.447 2.44-5.447 5.447v.4c-.023-.013-.044-.028-.066-.04-6.517 19.052-16.704 36.398-29.715 51.203-11.713 13.327-21.996 27.815-31.575 42.748-7.744 12.073-21.28 20.073-36.688 20.073H27.234v54.468c0 12.033 9.754 21.787 21.787 21.787l8.3-9.68c23.963-27.957 50.915-53.404 81.427-74.017 11.59-7.83 19.21-21.092 19.21-36.133v-32.68c0-3.943-.53-7.76-1.513-11.39 7.12-1.764 12.408-8.18 12.408-15.845 0-9.025-7.317-16.34-16.34-16.34z" fill="#40332B"/><path d="M157.957 152.51c0 6.018-4.877 10.895-10.894 10.895s-10.894-4.877-10.894-10.894v-10.893h10.893c6.017 0 10.894 4.877 10.894 10.894z" fill="#5E4B3D"/><path d="M103.49 65.362v61.004c0 8.423-6.83 15.25-15.252 15.25s-15.25-6.827-15.25-15.25V87.15c0-12.034 9.753-21.788 21.786-21.788h8.715z" fill="#6D5740"/><path d="M103.49 65.362v61.004c-8.424 0-15.252-6.828-15.252-15.25V80.612v-.134c.037-8.266 6.852-15.08 15.117-15.118h.134z" fill="#AF8D5D"/><path d="M38.128 179.745c0-9.024 7.316-16.34 16.34-16.34s16.34 7.316 16.34 16.34-7.316 16.34-16.34 16.34-16.34-7.316-16.34-16.34z" fill="#352720"/><path d="M54.468 174.298c-3.008 0-5.447 2.44-5.447 5.447s2.44 5.447 5.448 5.447 5.447-2.44 5.447-5.447-2.44-5.447-5.447-5.447z" fill="#281B15"/><path d="M163.53 435.677c-2.426-1.778-2.95-5.186-1.173-7.614.685-.935 1.048-2.046 1.048-3.214 0-18.47 5.09-36.92 14.723-53.36 1.52-2.594 4.855-3.468 7.452-1.946 2.596 1.52 3.467 4.857 1.947 7.452-8.654 14.773-13.228 31.32-13.228 47.853 0 3.498-1.09 6.836-3.156 9.653-1.066 1.455-2.72 2.227-4.398 2.227-1.118.002-2.246-.342-3.216-1.053zm231.98 1.055c1.678 0 3.33-.77 4.4-2.227 2.063-2.816 3.154-6.155 3.154-9.654 0-15.952 4.276-31.978 12.365-46.35 1.475-2.62.546-5.94-2.075-7.418-2.62-1.475-5.942-.548-7.42 2.074-9.005 15.998-13.765 33.875-13.765 51.695 0 1.168-.363 2.28-1.048 3.215-1.778 2.427-1.253 5.835 1.173 7.614.97.708 2.1 1.052 3.216 1.052zM512 163.404V283.234c0 3.008-2.44 5.447-5.447 5.447H495.66c-1.865 0-3.686-.19-5.447-.547v49.57c0 9.04-3.22 17.805-9.068 24.683-15.227 17.912-23.613 40.096-23.613 62.465 0 3.5-1.09 6.838-3.155 9.655-5.062 6.905-7.74 14.514-7.74 22.002v1.025c0 3.008-2.438 5.447-5.446 5.447h-43.573c-1.888 0-3.64-.978-4.633-2.585-.992-1.606-1.083-3.61-.24-5.3l7.884-15.765c2.785-5.57 8.386-9.033 14.616-9.033h4.16c3.003 0 5.447-2.443 5.447-5.447v-83.154c0-3.008 2.44-5.447 5.448-5.447 3.008 0 5.447 2.438 5.447 5.446v83.155c0 9.01-7.33 16.34-16.34 16.34h-4.16c-2.076 0-3.943 1.155-4.872 3.012l-3.942 7.883h29.544c.862-8.33 4.143-16.553 9.617-24.02.686-.935 1.05-2.046 1.05-3.214 0-24.95 9.305-49.64 26.206-69.52 4.176-4.91 6.474-11.17 6.474-17.628V283.22c-6.61-4.975-10.894-12.883-10.894-21.773s4.283-16.8 10.894-21.772V175.75c0-3.007 2.44-5.446 5.447-5.446 3.008 0 5.447 2.44 5.447 5.447v59.012c1.76-.358 3.582-.548 5.447-.548 1.913 0 3.74.348 5.448.953v-71.763c0-9.01-7.33-16.34-16.34-16.34-.662 0-1.32-.12-1.94-.357l-177.867-67.76c-33.153-12.63-67.95-19.032-103.428-19.032-26.962 0-51.26 15.12-63.244 38.927 14.276 8.01 24.164 22.95 25.05 40.237 6.538 3.764 10.96 10.808 10.96 18.878 0 7.853-4.25 15.01-10.893 18.85v32.688c11.995-9.967 19.8-24.33 21.38-40.007.218-2.167 1.705-3.996 3.78-4.65 2.077-.657 4.343-.01 5.766 1.64 6.062 7.035 14.4 11.567 23.444 12.873V168.15c0-5.62 4.572-10.192 10.19-10.192 43.702 0 85.5-16.248 117.7-45.75 2.217-2.034 5.662-1.883 7.694.336 2.033 2.218 1.882 5.664-.337 7.695-34.038 31.19-78.178 48.435-124.354 48.61v16.343c0 3.008-2.44 5.447-5.447 5.447-10.704 0-20.994-3.495-29.41-9.812-4.42 17.37-15.397 32.61-30.71 42.346-1.547 14.258-9.255 27.205-21.307 35.347-3.654 2.47-7.29 5.04-10.91 7.702.25 3.776.8 7.52 1.646 11.19 27.715-3.06 50.21-25.432 53.032-53.45.218-2.167 1.705-3.996 3.78-4.65 2.077-.657 4.343-.01 5.766 1.64 6.06 7.035 14.398 11.567 23.443 12.873V222.62c0-5.62 4.573-10.19 10.193-10.19 61.07 0 116.635-31.114 148.635-83.23 1.574-2.562 4.93-3.366 7.492-1.79 2.564 1.573 3.365 4.927 1.792 7.49-16.273 26.503-39.134 48.667-66.113 64.098-27.622 15.797-59.11 24.202-91.103 24.323v16.343c0 3.008-2.44 5.447-5.447 5.447-10.702 0-20.99-3.494-29.404-9.81-3.262 12.85-10.113 24.625-19.845 33.884-10.726 10.204-24.34 16.747-38.872 18.798 10.696 26.37 36.787 44.277 65.654 44.277 3.008 0 5.447 2.438 5.447 5.446v87.15c0 9.01-7.33 16.34-16.34 16.34h-4.162c-2.076 0-3.942 1.153-4.872 3.01l-3.94 7.883h29.542c.862-8.33 4.143-16.554 9.617-24.02.685-.936 1.048-2.047 1.048-3.215 0-24.952 9.308-49.64 26.207-69.52 4.176-4.912 6.474-11.172 6.474-17.63 0 0 .026-22.004.034-22.116.013-.23.273-3.96 4.056-4.978 13.62-3.664 24.508-14.67 27.64-28.418 1.87-8.216 8.983-13.956 17.293-13.956h87.15c8.31 0 15.42 5.74 17.292 13.956.667 2.933-1.17 5.852-4.102 6.52-2.933.672-5.853-1.168-6.52-4.1-.735-3.228-3.478-5.482-6.67-5.482h-87.15c-3.193 0-5.936 2.254-6.67 5.48-2.336 10.25-7.783 19.2-15.34 25.86H430.3c3.01 0 5.448 2.44 5.448 5.447s-2.44 5.446-5.447 5.446h-49.02V435.75c0 3.007-2.44 5.446-5.447 5.446H360.78c-2.077 0-3.944 1.154-4.873 3.01l-3.942 7.885h29.36c3.007 0 5.446 2.44 5.446 5.448 0 3.008-2.438 5.447-5.446 5.447h-38.172c-1.888 0-3.64-.977-4.633-2.584-.993-1.605-1.084-3.61-.24-5.3l7.883-15.764c2.785-5.57 8.386-9.033 14.616-9.033h9.606v-108.94h-108.94v16.34c0 9.04-3.22 17.805-9.067 24.683-15.228 17.912-23.614 40.096-23.614 62.465 0 3.5-1.09 6.838-3.155 9.655-5.06 6.905-7.738 14.514-7.738 22.002v1.025c0 3.008-2.44 5.447-5.447 5.447H168.85c-1.887 0-3.64-.978-4.632-2.585-.992-1.606-1.083-3.61-.24-5.3l7.884-15.765c2.786-5.57 8.386-9.033 14.615-9.033h4.16c3.004 0 5.448-2.443 5.448-5.447v-81.886c-16.035-1.088-31.12-6.946-43.574-16.3v109.08c0 3.01-2.438 5.448-5.446 5.448H132.01c-2.076 0-3.943 1.154-4.872 3.01l-3.942 7.884h29.366c3.008 0 5.447 2.44 5.447 5.447 0 3.008-2.44 5.447-5.448 5.447h-38.18c-1.887 0-3.64-.977-4.632-2.584-.992-1.606-1.083-3.61-.24-5.3l7.884-15.765c2.785-5.57 8.386-9.032 14.616-9.032h9.607V316.88c-8.38-9-14.798-19.932-18.43-32.177-1.045-3.528-1.84-7.133-2.4-10.78-20.5 16.227-40.383 35.535-59.333 57.645l-8.298 9.68c-1.035 1.206-2.546 1.9-4.135 1.9-15.016 0-27.233-12.216-27.233-27.233v-49.142c-8.388-.804-15.91-6.026-19.557-13.783C.75 249.843 0 246.325 0 242.532v-13.766c0-6.56.708-13.148 2.108-19.616C.708 206.07 0 202.644 0 198.96V185.19c0-41.732 27.635-77.98 67.54-89.147V87.15c0-15.018 12.217-27.235 27.234-27.235h8.715c3.007 0 5.446 2.44 5.446 5.447v27.234h5.447c4.812 0 9.46.71 13.857 2.008 13.71-27.85 41.935-45.582 73.292-45.582 36.807 0 72.91 6.644 107.306 19.747l176.982 67.42c14.53.558 26.18 12.55 26.18 27.214zM78.434 126.366c0 5.405 4.4 9.804 9.804 9.804s9.804-4.4 9.804-9.804V70.81h-3.268c-9.01 0-16.34 7.33-16.34 16.34v39.216zM21.787 255.802V239.66c0-3.003-2.443-5.447-5.447-5.447h-5.447v8.32c0 2.177.402 4.134 1.194 5.82 1.89 4.015 5.49 6.728 9.7 7.45zm130.67-36.18v-.016c.025-.576.052-1.153.052-1.733v-44.525c0-2.308 1.453-4.366 3.63-5.135 4.343-1.536 7.263-5.657 7.263-10.254 0-6.008-4.887-10.895-10.894-10.895h-10.295c-.74.927-1.574 3.33-1.867 4.176-.178.51-.332.953-.467 1.292-1.988 5.026-5.732 14.226-8.457 19.365-5.757 10.86-12.804 21.064-20.944 30.327-10.31 11.73-20.186 25.105-31.083 42.094-9.067 14.138-24.495 22.578-41.27 22.578h-5.446v49.02c0 8.21 6.086 15.024 13.982 16.17l6.522-7.607c25.998-30.33 53.76-55.56 82.514-74.986 10.04-6.787 16.21-17.856 16.758-29.873zm-38.074-116.133h-5.447v22.876c0 11.413-9.285 20.698-20.698 20.698S67.54 137.78 67.54 126.366v-18.95c-33.616 10.772-56.647 41.986-56.647 77.776v13.767c0 2.176.402 4.133 1.195 5.818.155.33.324.646.5.956.685 1.202.887 2.62.565 3.964-1.073 4.49-1.768 9.05-2.076 13.62h5.263c9.01 0 16.34 7.33 16.34 16.34v16.34h5.447c13.046 0 25.047-6.568 32.102-17.567 11.2-17.46 21.39-31.25 32.068-43.402 7.58-8.626 14.142-18.127 19.503-28.238 2.48-4.676 6.048-13.455 7.954-18.27.088-.225.187-.517.304-.854 1.193-3.44 3.99-11.497 11.558-11.497h10.498c-2.65-18.45-18.557-32.68-37.73-32.68zm386.723 174.297V265.94c-1.707.607-3.535.953-5.447.953-3.01 0-5.448-2.44-5.448-5.447 0-3.008 2.44-5.447 5.447-5.447 3.002 0 5.446-2.444 5.446-5.448 0-3.003-2.443-5.447-5.447-5.447-9.01 0-16.34 7.33-16.34 16.34s7.33 16.34 16.34 16.34h5.446z"/></svg>