<svg xmlns="http://www.w3.org/2000/svg" viewBox="0 0 512 512"><path d="M104.94 132.517c-22.565-5.793-53.735-15.948-74.088-31.43-12.005-9.133-19.722-22.36-21.727-37.25-2.002-14.854 1.91-29.626 11.013-41.593C29.24 10.277 42.432 2.566 57.282.53 72.164-1.514 86.974 2.394 98.98 11.526c20.004 15.218 37.856 41.956 49.31 61.71l-43.35 59.28z" fill="#B17E15"/><path d="M112.734 102.153C96.554 98 66.868 89.097 49.83 76.136c-5.33-4.055-8.753-9.91-9.64-16.487-.885-6.57.854-13.114 4.896-18.428 4.043-5.314 9.886-8.736 16.453-9.638 6.57-.9 13.13.835 18.46 4.892C92.39 45.9 107.013 64.54 121.175 88.96l-8.44 13.193z" fill="#EFC589"/><path d="M407.062 132.517c22.564-5.793 53.734-15.948 74.087-31.43 12.004-9.133 19.72-22.36 21.726-37.25 2.002-14.854-1.91-29.626-11.013-41.593C482.76 10.277 469.567 2.566 454.718.53c-14.882-2.042-29.692 1.866-41.697 10.998-20.004 15.218-37.856 41.956-49.31 61.71l43.352 59.28z" fill="#9B640D"/><path d="M399.268 102.153c16.18-4.153 45.866-13.056 62.903-26.017 5.332-4.055 8.755-9.91 9.642-16.487.885-6.57-.854-13.114-4.896-18.428-4.043-5.314-9.886-8.736-16.453-9.638-6.57-.9-13.13.835-18.462 4.892C419.613 45.9 404.99 64.54 390.83 88.96l8.44 13.193z" fill="#B19267"/><g fill="#B17E15"><path d="M210.38 435.033h-31.346C179.034 477.473 213.56 512 256 512s76.968-34.527 76.968-76.967H210.38zM154.808 383.697c-15.568-18.928-37.468-85.903-41.7-99.136-7.895-24.685-26.257-85.837-26.257-120.438 0-52.816 20.574-90.383 61.15-111.658 34.975-18.34 78.388-20.46 108-20.46 29.614 0 73.027 2.12 108.003 20.46 40.575 21.275 61.148 58.843 61.148 111.658 0 34.6-18.362 95.754-26.257 120.44-4.232 13.235-26.134 80.21-41.702 99.138l-202.382-.003z"/></g><path d="M256 466.287c-74.473 0-101.7-55.005-102.82-57.346l-1.54-3.21v-3.564c0-63.603 12.198-111.717 36.26-143.004 25.566-33.247 56.142-36.837 68.1-36.837 11.96 0 42.536 3.59 68.103 36.837 24.06 31.287 36.26 79.4 36.26 143.004v3.563l-1.54 3.21c-1.123 2.343-28.348 57.347-102.822 57.347z" fill="#EFC589"/><path d="M256 512c40.67 0 74.05-31.71 76.77-71.703-16.317 13.393-41.13 25.99-76.77 25.99V512z" fill="#9B640D"/><path d="M179.233 440.297C181.95 480.29 215.333 512 256 512v-45.714c-35.638 0-60.45-12.595-76.767-25.99z" fill="#B17E15"/><path d="M425.15 164.12c0-52.815-20.572-90.382-61.147-111.657-34.976-18.34-78.39-20.46-108.002-20.46v190.32c11.96 0 42.536 3.59 68.103 36.838 21.195 27.562 33.18 68.188 35.736 120.95 15.297-22.62 35.056-83.05 39.053-95.55 7.895-24.685 26.258-85.838 26.258-120.44z" fill="#9B640D"/><path d="M256 466.287V222.324c11.96 0 42.536 3.59 68.103 36.837 24.06 31.288 36.26 79.402 36.26 143.005v3.563l-1.54 3.212c-1.123 2.343-28.348 57.347-102.822 57.347z" fill="#B19267"/><g fill="#333"><path d="M155.368 193.308c0-11.513 9.228-20.835 20.57-20.835 11.354 0 20.58 9.323 20.58 20.835 0 11.51-9.226 20.842-20.58 20.842-11.34 0-20.57-9.332-20.57-20.842zM315.482 193.308c0-11.513 9.228-20.835 20.57-20.835 11.354 0 20.58 9.323 20.58 20.835 0 11.51-9.226 20.842-20.58 20.842-11.342 0-20.57-9.332-20.57-20.842zM208.07 325.112c0-6.525 5.23-11.81 11.657-11.81 6.435 0 11.665 5.285 11.665 11.81 0 6.524-5.23 11.812-11.665 11.812-6.427 0-11.658-5.29-11.658-11.812zM280.61 325.112c0-6.525 5.23-11.81 11.658-11.81 6.435 0 11.665 5.285 11.665 11.81 0 6.524-5.23 11.812-11.665 11.812-6.428 0-11.658-5.29-11.658-11.812z"/></g><path d="M240.328 465.43c4.977.553 10.194.858 15.673.858 5.48 0 10.697-.305 15.674-.858V360.492h-31.346V465.43z" fill="#3E2C27"/><path d="M256 360.492v105.794c5.48 0 10.697-.305 15.674-.858V360.492H256z" fill="#2E211D"/></svg>