<svg xmlns="http://www.w3.org/2000/svg" viewBox="0 0 512 512"><g fill="#E67332"><path d="M37.77 235.016V11.87C37.77 5.314 43.085 0 49.64 0c3.15 0 6.168 1.25 8.394 3.477l101.44 101.44-121.704 130.1zM474.23 235.016V11.87c0-6.556-5.316-11.87-11.87-11.87-3.15 0-6.168 1.25-8.394 3.477l-101.44 101.44 121.703 130.1z"/></g><path d="M491.016 276.984C491.016 406.78 385.796 512 256 512S20.984 406.78 20.984 276.984 107.662 58.754 256 58.754s235.016 88.433 235.016 218.23z" fill="#FF914B"/><path d="M309.115 345.328c-21.997-4.72-42.222 4.946-53.115 21.348-10.893-16.402-31.118-26.067-53.115-21.348-18.884 4.05-34.105 19.356-38.068 38.258-6.83 32.576 17.84 61.266 49.216 61.266 14.02 0 26.694-5.736 35.82-14.984 3.453-3.498 8.84-3.498 12.292 0 9.127 9.247 21.8 14.984 35.822 14.984 31.374 0 56.047-28.69 49.216-61.265-3.965-18.902-19.185-34.208-38.068-38.26z" fill="#FFF"/><g fill="#E67332"><path d="M222.257 355.646l23.497 32.896c5.02 7.03 15.47 7.03 20.49 0l23.497-32.896c5.953-8.333-.003-19.908-10.244-19.908H232.5c-10.238 0-16.195 11.574-10.243 19.908zM306.36 62.483v71.812c0 9.27 7.517 16.787 16.788 16.787s16.787-7.516 16.787-16.787V69.762c-10.69-3.037-21.874-5.487-33.574-7.28zM256 58.754c-5.698 0-11.272.175-16.787.433v117.075c0 9.27 7.516 16.787 16.787 16.787s16.787-7.517 16.787-16.788V59.187c-5.515-.258-11.09-.433-16.787-.433zM172.066 69.762v64.533c0 9.27 7.516 16.787 16.787 16.787s16.787-7.516 16.787-16.787V62.483c-11.702 1.792-22.887 4.242-33.574 7.28z"/><circle cx="104.918" cy="352.525" r="33.574"/><circle cx="407.082" cy="352.525" r="33.574"/></g><g fill="#464655"><circle cx="348.328" cy="268.59" r="33.574"/><circle cx="163.672" cy="268.59" r="33.574"/></g></svg>