<svg xmlns="http://www.w3.org/2000/svg" viewBox="0 0 512 512"><path d="M420.212 168.486l-21.914-58.198C394.613 100.534 401.818 90 412.33 90h67.208c8.29 0 15 6.71 15 15 0 34.395-23.276 64.292-56.616 72.744-7.402 1.85-15.014-2.087-17.71-9.258z" fill="#FE9923"/><path d="M344.538 0c-21.9 0-41.7 12-52.2 30.6-13.8-1.8-27.3 1.2-38.4 7.8-17.4 10.5-29.4 29.4-29.4 51.6 0 21.9 11.7 41.1 29.4 51.6 9 5.4 19.5 8.4 30.6 8.4 13.8 0 29.4-3.3 30-17.1 1.5-32.7 36.3-51.9 63.3-39 7.2 3.6 15.9.6 19.8-6.3 4.5-8.4 6.9-17.7 6.9-27.6 0-33-27-60-60-60z" fill="#FD003A"/><path d="M404.538 60c0 9.9-2.4 19.2-6.9 27.6-3.9 6.9-12.6 9.9-19.8 6.3-27-12.9-61.8 6.3-63.3 39-.6 13.8-16.2 17.1-30 17.1-11.1 0-21.6-3-30.6-8.4V38.4c11.1-6.6 24.6-9.6 38.4-7.8 10.5-18.6 30.3-30.6 52.2-30.6 33 0 60 27 60 60z" fill="#E50027"/><path d="M481.338 248.9l-54.9-149.3c-8.1-18.9-36.3-39.6-66.9-39.6-40.2 0-73.2 31.5-75 72.3v81.2l30 13.5c0 2.1-.6 4.2-1.5 6.3-1.5 3.6-4.5 6.3-8.1 7.5-1.8.9-33.6 31.2-35.4 31.2h-93.9l-29.4-30h-8.1c-5.7 0-11.1-3-13.5-8.102l-11.4-23.1c-8.7-17.398-27-28.798-46.5-28.798-28.8 0-52.2 23.4-52.2 52.2V257c0 123.6 68.4 255 195 255h89.1c154.5 0 235.5-120.9 182.7-263.1z" fill="#FEDB41"/><path d="M298.637 512h-44.7V272h15.6c1.8 0 33.6-30.3 35.4-31.2 3.6-1.2 6.602-3.9 8.102-7.5.898-2.1 1.5-4.2 1.5-6.3l-30-13.5v-81.2c1.8-40.8 34.798-72.3 75-72.3 30.6 0 58.8 20.7 66.898 39.6l54.9 149.3c52.8 142.2-28.2 263.1-182.7 263.1z" fill="#FCBF29"/><path d="M374.538 317c0 69.6-52.8 126.9-120.6 134.4-4.8.3-9.6.6-14.4.6h-30c-32.1 0-53.7-32.4-41.7-61.5-26.1-7.2-40.2-35.4-30-60-50.7-14.4-40.2-88.5 11.7-88.5h120c1.8 0 3.6-.3 5.4-1.2 3.6-1.2 6.6-3.9 8.1-7.5.9-2.1 1.5-4.2 1.5-6.3v-14.7c26.4-.6 52.2 12 69.3 32.4h.3c20.1 24.6 20.4 44.7 20.4 72.3z" fill="#FEA832"/><path d="M374.538 135c0 8.4-6.6 15-15 15s-15-6.6-15-15 6.6-15 15-15 15 6.6 15 15z" fill="#713708"/><path d="M374.538 317c0 69.6-52.8 126.9-120.6 134.4V242h15.6c1.8 0 3.6-.3 5.4-1.2 3.6-1.2 6.6-3.9 8.1-7.5.9-2.1 1.5-4.2 1.5-6.3v-14.7c26.4-.6 52.2 12 69.3 32.4h.3c20.1 24.6 20.4 44.7 20.4 72.3z" fill="#FE9923"/></svg>