<svg xmlns="http://www.w3.org/2000/svg" viewBox="0 0 512 512"><path d="M121.07 118.312C85.062 80.325 40.696 89.197 8.032 96.706c-32.664 7.508 40.65 107.983 105.4 69.202l18.92-8.065-11.284-39.53z" fill="#424242"/><path d="M119.688 137.3c-15.5-13.528-33.094-19.44-54.798-18.53-5.173.217-10.38.805-15.58 1.65-5.865.952-8.234 8.084-4.128 12.38 2.335 2.443 4.953 4.947 7.874 7.453 15.624 13.41 32.983 20.75 47.626 20.138h.003c7.86-.33 15.092-2.842 22.112-7.683l1.46-1.006-4.57-14.4z" fill="#EF999A"/><path d="M390.93 118.312c36.008-37.987 80.373-29.114 113.037-21.606 32.664 7.508-40.65 107.983-105.4 69.202l-18.92-8.065 11.284-39.53z" fill="#424242"/><path d="M392.31 137.3c15.5-13.528 33.095-19.44 54.8-18.53 5.172.217 10.378.805 15.578 1.65 5.866.952 8.235 8.084 4.13 12.38-2.336 2.443-4.954 4.947-7.875 7.453-15.624 13.41-32.983 20.75-47.626 20.138h-.004c-7.86-.33-15.092-2.842-22.112-7.683l-1.458-1.006 4.57-14.4z" fill="#EF999A"/><path d="M374.844 326.73l-.02-.036.025-.02L343.547 59.84C321.786 46.696 293.028 38.97 256 38.97c-36.46 0-64.894 7.498-86.533 20.278l-1.015.594.826.964-32.123 265.923c.802 9.146 1.367 17.76 1.933 25.885h233.82l.003.002.02-.278c.56-8.06 1.123-16.602 1.92-25.665l-.006.054z" fill="#E6E1D7"/><path d="M132.353 157.842l-11.284-39.53c-8.21-8.66-16.853-14.88-25.693-19.24-4.783 11-8.437 22.855-10.898 35.48-2.495 12.793-3.747 26.258-3.78 40.198 10.793.23 21.882-2.344 32.732-8.842l18.92-8.066z" opacity=".1"/><path d="M122.647 247.036c8.94 30.17 12.484 56.6 14.51 79.693 26.202-48.168 71.532-50.532 75.27-100.195 4.895-65.032-55.242-69.228-29.37-149.644l-14.604-17.048C107.625 96.585 101.51 175.7 122.647 247.036z" fill="#424242"/><path d="M159.577 200.272c-4.03-.415-7.913.356-11.326 2.035-2.024.996-3.478 2.928-3.713 5.174l-.003.035c-1.237 12.02 7.244 22.738 18.943 23.942 4.03.415 7.913-.356 11.326-2.035 2.026-.996 3.48-2.928 3.714-5.174l.003-.034c1.237-12.018-7.244-22.737-18.943-23.942z" fill="#212121"/><path d="M341.82 435.375c5.758 39.37-12.375 56.873-85.822 56.873h.004c-73.448 0-91.58-17.503-85.822-56.873h171.64z" fill="#D98B8C"/><path d="M341.82 435.374c25.85-18.752 28.497-45.536 31.092-82.758-30.026-14.916-71.327-24.128-116.914-24.128-45.586 0-86.883 9.21-116.91 24.126 2.595 37.222 5.243 64.006 31.092 82.76 34.977 19.73 85.82 18.834 85.82 18.834s50.842.897 85.82-18.834z" fill="#EF999A"/><ellipse transform="rotate(-105.938 197.58 384.866)" cx="197.588" cy="384.881" rx="28.929" ry="19.677" fill="#212121"/><path d="M427.52 134.552c-2.46-12.625-6.114-24.478-10.897-35.48-8.84 4.362-17.483 10.58-25.692 19.24l-11.283 39.53 18.92 8.067c10.85 6.497 21.94 9.07 32.732 8.84-.033-13.94-1.285-27.404-3.78-40.198z" opacity=".1"/><path d="M389.353 247.036c-8.94 30.17-12.484 56.6-14.51 79.693-26.202-48.168-71.532-50.532-75.27-100.195-4.895-65.032 55.242-69.228 29.37-149.644l14.604-17.048c60.828 36.743 66.943 115.857 45.806 187.194z" fill="#424242"/><g fill="#212121"><path d="M352.423 200.272c4.03-.415 7.913.356 11.326 2.035 2.024.996 3.478 2.928 3.713 5.174l.003.035c1.237 12.02-7.244 22.738-18.943 23.942-4.03.415-7.913-.356-11.326-2.035-2.026-.996-3.48-2.928-3.714-5.174l-.003-.034c-1.238-12.018 7.244-22.737 18.943-23.942z"/><ellipse transform="rotate(105.938 314.362 384.826)" cx="314.375" cy="384.841" rx="28.929" ry="19.677"/></g><path d="M204.042 81.052c-4.03 14.912-22.223 21.17-34.653 12-13.393-9.88-16.72-29.97-15.827-45.506.545-9.495 5.34-31.416 19.083-27.28 17.11 5.15 17.535 32.964 27.522 45.136 4.572 5.57 5.144 10.95 3.874 15.65z" fill="#FFCC80"/><path d="M179.69 72.45c-13.392-9.882-16.718-29.973-15.826-45.508.095-1.648.32-3.675.696-5.87-7.625 4.457-10.578 19.153-10.998 26.474-.892 15.535 2.433 35.627 15.826 45.507 12.43 9.17 30.622 2.91 34.652-12 .635-2.348.81-4.863.255-7.49-7.34 4.325-17.038 4.468-24.605-1.114z" opacity=".1"/><path d="M307.958 81.052c4.03 14.912 22.223 21.17 34.653 12 13.393-9.88 16.72-29.97 15.827-45.506-.545-9.495-5.34-31.416-19.083-27.28-17.11 5.15-17.535 32.964-27.522 45.136-4.573 5.57-5.144 10.95-3.874 15.65z" fill="#FFCC80"/><path d="M332.308 72.45c13.392-9.882 16.718-29.973 15.826-45.508-.095-1.648-.32-3.675-.696-5.87 7.625 4.457 10.578 19.153 10.998 26.474.892 15.535-2.433 35.627-15.826 45.507-12.43 9.17-30.622 2.91-34.652-12-.635-2.348-.81-4.863-.255-7.49 7.342 4.325 17.04 4.468 24.605-1.114z" opacity=".1"/></svg>