<svg xmlns="http://www.w3.org/2000/svg" viewBox="0 0 512.001 512.001"><path d="M255.926 61.88c-90.865 0-173.47 33.04-173.47 33.04v181.732c0 66.084 43.368 96.028 90.865 132.168h165.21c47.5-36.14 90.866-66.084 90.866-132.168V94.922s-82.604-33.043-173.47-33.043z" fill="#AA968C"/><g fill="#464655"><circle cx="165.055" cy="227.092" r="24.781"/><circle cx="346.797" cy="227.092" r="24.781"/></g><path d="M280.708 466.643h-49.563c-36.497 0-66.084-29.587-66.084-66.084v-66.085h181.732v66.084c0 36.496-29.587 66.083-66.084 66.083z" fill="#AA968C"/><path d="M255.926 243.61c-15.573 0-30.09 7.763-38.682 20.75-21.52 32.535-60.444 93.202-60.444 106.338 0 18.156 33.042 81.7 99.126 45.39 66.084 36.31 99.126-27.235 99.126-45.39 0-13.137-38.924-73.803-60.444-106.337-8.59-12.988-23.11-20.75-38.682-20.75z" fill="#D2BEAF"/><path d="M297.23 339.065c0 20.276-41.303 36.714-41.303 36.714s-41.302-16.438-41.302-36.715c0-20.276 18.492-29.37 41.302-29.37s41.302 9.093 41.302 29.37z" fill="#464655"/><g fill="#8C7873"><path d="M143.053 99.072L75.63 267.622c-3.898 9.748-17.35 10.636-22.496 1.487L4.69 182.99c-7.8-13.87-5.725-31.196 5.134-42.83l82.93-88.855c7.688-8.237 20.857-7.866 28.07.79l18.256 21.908c5.828 6.993 7.352 16.617 3.973 25.07zM368.95 99.072l67.42 168.552c3.9 9.747 17.35 10.635 22.497 1.486l48.442-86.12c7.8-13.87 5.725-31.195-5.134-42.83l-82.93-88.854c-7.688-8.237-20.857-7.866-28.07.79L372.92 74.002c-5.826 6.993-7.35 16.617-3.97 25.07z"/></g></svg>