<svg xmlns="http://www.w3.org/2000/svg" viewBox="0 0 512 512"><path d="M185.492 116.687c-4.383-42.432-19.72-74.132-45.582-94.217C103.847-5.534 60.95.446 59.14.714L48.79 2.25l-2.55 10.147c-.3 1.197-7.306 29.73-1.396 64.232 5.58 32.58 23.932 76.8 79.672 102.438l60.976-62.38z" fill="#87868A"/><path d="M137.616 150.59C103.16 134.74 82.403 108.42 75.92 72.357c-2.933-16.323-2.24-31.235-1.128-40.925 11.555.473 30.147 3.44 46.173 16.02 18.674 14.655 29.892 39.033 33.345 72.457l-16.694 30.68z" fill="#D37B93"/><path d="M326.508 116.687c4.383-42.433 19.72-74.133 45.583-94.218C408.154-5.536 451.053.444 452.86.712l10.35 1.535 2.55 10.148c.302 1.197 7.307 29.73 1.396 64.23-5.58 32.582-23.932 76.802-79.672 102.44l-60.976-62.38" fill="#646467"/><path d="M374.384 150.59c34.455-15.848 55.213-42.17 61.695-78.232 2.933-16.323 2.24-31.234 1.13-40.927-11.556.475-30.15 3.44-46.175 16.02-18.675 14.657-29.893 39.036-33.346 72.46l16.694 30.68" fill="#9D5B6E"/><path d="M147.17 403.007c-.012 3.43-.084 6.69-.205 9.514l-.015.676c0 47.04 23.227 70.8 42.71 82.445C212.28 509.16 238.223 512 256 512s43.72-2.84 66.34-16.36c19.483-11.646 42.71-35.404 42.71-82.444l-.015-.675c-.12-2.823-.193-6.082-.206-9.512-35.56-16.264-72.904-22.005-108.832-22.005-35.925 0-73.27 5.74-108.827 22.004z" fill="#AEADB3"/><path d="M373.97 125.76C348.576 97.463 308.886 83.116 256 83.116s-92.574 14.347-117.968 42.644c-25.746 28.69-35.843 70.5-30.01 124.27 4.195 38.69 13.334 61.725 23.916 88.397 4.113 10.367 8.366 21.088 12.684 33.642 1.928 5.604 2.59 19.277 2.55 30.937 35.558-16.264 72.9-22.004 108.83-22.004s73.27 5.74 108.83 22.005c-.042-11.66.62-25.334 2.55-30.94 4.318-12.555 8.57-23.275 12.683-33.64 10.582-26.673 19.722-49.708 23.917-88.397 5.83-53.77-4.267-95.58-30.012-124.27z" fill="#87868A"/><path d="M256 512c17.78 0 43.72-2.838 66.34-16.358 19.484-11.647 42.71-35.405 42.71-82.446l-.014-.675c-.12-2.823-.193-6.08-.206-9.512-35.56-16.264-72.903-22.005-108.83-22.005V512z" fill="#818186"/><path d="M373.97 125.76C348.576 97.463 308.886 83.116 256 83.116v297.887c35.93 0 73.273 5.74 108.832 22.005-.042-11.66.62-25.334 2.55-30.94 4.318-12.555 8.57-23.275 12.683-33.64 10.582-26.673 19.722-49.708 23.917-88.397 5.83-53.77-4.267-95.58-30.012-124.27z" fill="#646467"/><g fill="#333"><path d="M183.266 266.443c0-11.513 9.23-20.836 20.57-20.836 11.354 0 20.582 9.324 20.582 20.836 0 11.51-9.228 20.843-20.583 20.843-11.34 0-20.57-9.332-20.57-20.843zM328.734 266.443c0-11.598-9.288-21-20.725-21-11.45 0-20.74 9.402-20.74 21s9.288 21 20.74 21c11.436-.002 20.724-9.403 20.724-21zM202.095 433.63c0-9.937 7.966-17.985 17.756-17.985 9.803 0 17.77 8.048 17.77 17.986 0 9.937-7.966 17.994-17.77 17.994-9.79 0-17.755-8.057-17.755-17.993zM309.906 433.63c0-10.01-8.018-18.125-17.89-18.125-9.885 0-17.903 8.115-17.903 18.126s8.018 18.127 17.903 18.127c9.872 0 17.89-8.114 17.89-18.126z"/></g></svg>