<svg xmlns="http://www.w3.org/2000/svg" viewBox="0 0 511.943 511.943"><path d="M466.95 43.496l-42.996-10.5-13.498 5.5L382.96 63.76l-25.998 59.227-31.996 59.494 67.992-5s55.994 31.498 57.494 34.498c1.5 3 16.498 14.498 16.498 14.498l-6.5-144.984 6.5-37.996z" fill="#656D78"/><path fill="#AAB2BC" d="M442.95 208.978L388.96 176.98l-37.996 4-58.993 19.998-131.985 56.244-90.99 42.745v17.998l29.997 9L210.98 360.96h102.987l86.99-25.997 42.994-39.995 12-56.494"/><g fill="#656D78"><path d="M255.973 365.46l13.498 46.494 26 23.498 29.495-69.992M84.493 328.964L29 365.46l156.982-7.5c-8.5-3.5-101.49-28.996-101.49-28.996z"/></g><path d="M501.274 63.775c0-5.905-4.78-10.686-10.67-10.686s-10.656 4.78-10.656 10.685h-4.874l3.155-4.874c1.874-2.905 2.233-6.53.952-9.748-.453-1.156-11.514-27.81-47.15-27.81-3.938 0-8.094.344-12.312 1-25.73 4.094-41.604 37.152-59.978 75.43-13.95 29.027-28.37 59.087-46.854 75.43-11.89 10.528-47.058 32.433-147.062 76.96-60.4 26.87-116.237 49.337-116.783 49.587-4.094 1.624-6.75 5.623-6.688 10.03s2.828 8.31 6.953 9.842c7.03 2.624 13.967 5.124 20.84 7.53l-64.755 36.87c-4.313 2.44-6.36 7.53-4.953 12.28 1.344 4.563 5.516 7.656 10.218 7.656.203 0 .406 0 .61-.03l233.94-13.313c.204.03.407.063.595.063 1.28 11.28 4.874 26.56 9.483 39.59 6.39 18.09 13.653 29.527 22.013 34.62v24.404h-10.672c-5.89 0-10.655 4.75-10.655 10.654 0 5.906 4.766 10.655 10.655 10.655h63.993c5.89 0 10.67-4.748 10.67-10.654 0-5.905-4.78-10.654-10.67-10.654h-31.995v-24.404c8.373-5.093 15.64-16.53 22.027-34.62 4.563-12.905 8.125-28.028 9.438-39.277 48.072-6.31 85.006-25.09 110.065-56.055 15.248-18.842 25.997-42.09 32.246-69.586.157-.564.282-1.095.36-1.657 9.374-42.81 7.983-95.802-4.233-158.607h32.746c5.89 0 10.67-4.75 10.67-10.655s-4.78-10.655-10.67-10.655zm-122.3 43.214c13.78-28.716 29.403-61.244 44.09-63.587 3.124-.5 6.14-.75 8.968-.75 13.78 0 21.14 5.937 24.67 10.25L446.513 68.65c-.047.063-.094.156-.156.25-.11.188-.22.375-.328.563-.063.125-.11.22-.156.344-.11.22-.203.406-.28.625-.048.094-.095.22-.126.344-.078.188-.156.405-.22.624-.046.125-.062.25-.093.406-.063.188-.11.406-.156.594-.032.156-.048.313-.064.5-.03.156-.063.344-.078.53-.016.22-.03.407-.03.595-.017.156-.017.28-.017.406v.064c0 .22.017.406.032.625 0 .155 0 .312.03.468.017.125.032.25.064.406.03.22.063.438.094.656h.016c10.796 50.62 14.64 94.49 11.546 131.423-12.405-18.092-28.372-30.528-47.76-37.06-21.404-7.248-43.948-6.217-63.993-1.968 12.98-18 23.683-40.277 34.135-62.056zM55.45 360.053l41.73-23.747c21.293 6.905 41.775 12.874 61.367 17.873L55.45 360.054zm246.112 40.12c-5.843 17.655-11.374 24.497-13.593 26.153-2.22-1.656-7.75-8.498-13.608-26.152-3.188-9.656-5.53-19.81-6.75-27.56 8.188.53 16.14.78 23.842.78h.03c5.72 0 11.313-.156 16.78-.438-1.234 7.72-3.563 17.718-6.702 27.218zM423.58 301.5c-13.266 16.404-30.764 28.966-51.98 37.34-22.247 8.78-49.198 13.248-80.116 13.248h-.016c-55.946 0-126.048-14.498-208.68-43.12 47.636-19.717 149.124-62.805 207.805-95.77 1.03-.28 2.047-.688 3.016-1.28.593-.376 60.367-36.998 108.456-20.687 21.685 7.342 38.15 24.81 49.01 51.9-5.593 23.122-14.748 42.62-27.497 58.368z"/><path d="M426.61 74.43c5.89 0 10.67-4.78 10.67-10.655 0-5.905-4.78-10.686-10.67-10.686s-10.654 4.78-10.654 10.685c0 5.875 4.764 10.655 10.654 10.655z"/></svg>