<svg xmlns="http://www.w3.org/2000/svg" viewBox="0 0 512 512"><path d="M85.965 45.206L19.638 62.423c-6.095 1.524-10.37 7-10.37 13.282 0 7.562 6.13 13.69 13.69 13.69H97.14l-11.175-44.19z" fill="#EB914B"/><path d="M9.268 75.705c0 7.562 6.13 13.69 13.69 13.69h74.183l-4.11-16.253H9.7c-.164.852-.432 1.67-.432 2.563z" fill="#D2783C"/><path d="M277.457 495.746h-40.635v-81.27c0-4.488-3.635-8.127-8.127-8.127s-8.127 3.638-8.127 8.126v81.27h-48.762c-4.492 0-8.127 3.64-8.127 8.127s3.634 8.127 8.126 8.127h105.65c4.493 0 8.128-3.64 8.128-8.127 0-4.488-3.635-8.127-8.127-8.127z" fill="#EBAF4B"/><path d="M277.457 495.746h-8.127v-81.27c0-4.488-3.635-8.127-8.127-8.127s-8.127 3.638-8.127 8.126v81.27h-48.762c-4.492 0-8.127 3.64-8.127 8.127s3.635 8.127 8.127 8.127h73.143c4.492 0 8.127-3.64 8.127-8.127 0-4.488-3.635-8.127-8.127-8.127z" fill="#FFC850"/><path d="M479.474 406.09c5.986.11 12.037.196 18.21.235 3.576.023 6.03-3.6 4.663-6.907-14.412-34.862-90.816-189.953-314.287-204.37V57.852c0-31.69-25.494-58.014-57.185-57.852-31.353.16-56.707 25.683-56.592 57.1.098 26.936 22.365 48.552 49.3 48.552h7.59c0 73.143-65.017 105.65-65.017 170.667s56.89 162.54 284.444 162.54h132.186c3.177 0 5.542-2.92 4.894-6.03-1.163-5.578-3.446-14.772-7.67-26.487l-.536-.253z" fill="#BEE86E"/><path d="M171.807 365.714c-69.39-53.97-66.446-118.052-40.635-170.667 17.345-35.357 23.3-69.838 25.344-89.346.872-8.32-4.815-16.043-13.06-17.468-35.755-6.177-53.99-36.45-43.673-78.77C84.6 19.532 74.516 36.68 74.288 56.21c-.318 27.19 22.478 49.44 49.67 49.44h7.215c0 73.144-65.016 105.652-65.016 170.668s56.89 162.54 284.444 162.54h132.17c3.17 0 5.55-2.912 4.896-6.015-.826-3.928-2.204-9.645-4.405-16.746-98.155 6.686-251.515-3.763-311.453-50.383z" fill="#AFD755"/><path d="M350.6 438.857h132.186c3.177 0 5.542-2.918 4.894-6.028-1.163-5.58-3.446-14.774-7.67-26.49l-.537-.25c5.986.11 12.037.197 18.21.236 3.576.023 6.03-3.6 4.663-6.907-14.412-34.863-90.816-189.954-314.287-204.372v-30.38c-31.7-1.596-54.262-10.826-64.948-16.21-17.35 46.018-56.957 77.047-56.957 127.86.002 65.015 56.89 162.54 284.445 162.54z" fill="#AF6E5A"/><path d="M483.26 416.096c-98.155 6.687-251.514-3.762-311.453-50.382-69.39-53.97-66.446-118.052-40.635-170.667 6.326-12.895 11.103-25.652 14.76-37.63-10.022-3.043-17.783-6.424-22.82-8.96-17.35 46.018-56.957 77.047-56.957 127.86 0 65.016 56.89 162.54 284.444 162.54h132.168c3.17 0 5.55-2.912 4.896-6.015-.826-3.925-2.202-9.635-4.4-16.728 0-.005-.002-.012-.004-.018z" fill="#965A50"/><path d="M480.01 406.34l-.537-.25c5.985.11 12.036.197 18.207.236 3.577.023 6.032-3.602 4.664-6.907-14.377-34.75-90.387-188.953-312.253-204.193-19.3 6.66-35.537 14.366-45.713 23.186-40.228 34.865-54.275 177.412 90.413 209.27 12.83 2.825 26.714 5.182 41.184 7.16 22.573 2.58 47.34 4.014 74.626 4.014h132.186c3.177 0 5.542-2.918 4.894-6.028-1.164-5.58-3.447-14.774-7.67-26.49z" fill="#EBC9A0"/><path d="M188.06 195.048c223.485 14.418 299.884 169.526 314.29 204.377 1.366 3.305-1.085 6.924-4.66 6.906-390.598-1.98-366.517-162.52-366.517-162.52 0-24.38 23.026-49.44 56.888-48.762z" fill="#965A50"/><path d="M123.046 65.016c-8.977 0-16.254-7.277-16.254-16.254s7.277-16.254 16.254-16.254S139.3 39.785 139.3 48.762s-7.28 16.254-16.254 16.254z" fill="#4B3F4E"/><path d="M188.06 195.048c-15.203-.304-28.206 4.583-37.92 12.267-13.978 11.055-17.282 30.416-9.126 46.26 36.643 71.192 150.03 80.63 217.715 70.007 37.924-5.952 76.468-22.736 76.468-22.736-48.268-48.898-126.08-97.988-247.137-105.798z" fill="#824641"/><circle cx="131.171" cy="40.635" r="8.127" fill="#FFF"/></svg>