<svg xmlns="http://www.w3.org/2000/svg" viewBox="0 0 512.001 512.001"><path d="M256 96.83c66.066 0 102.126 36.676 116.66 67.563 8.52 18.107 15.47 37.588 15.47 59.128 0 43.814-16.516 160.474-16.516 160.474-8.258 52.084-24.332 79.804-66.063 84.043h-99.1c-41.73-4.238-57.805-31.96-66.063-84.042 0 0-16.516-116.66-16.516-160.473 0-21.54 6.95-41.02 15.47-59.127C153.877 133.505 189.937 96.83 256 96.83z" fill="#9F8976"/><path d="M198.194 430.33c0 47.362 25.88 62.888 57.807 62.888s57.808-15.526 57.808-62.888H198.194z" fill="#FFEBD2"/><path d="M330.323 403.264c0 36.65-33.275 48.664-74.323 48.664s-74.323-12.014-74.323-48.664 33.275-75.207 74.323-75.207 74.323 38.558 74.323 75.207z" fill="#FFF"/><g fill="#464655"><circle cx="165.162" cy="245.472" r="16.516"/><circle cx="346.839" cy="245.472" r="16.516"/><path d="M296.783 404.88c.147-.454.398-.878.465-1.35.108-.774-.01-1.557-.123-2.334-.04-.277.024-.555-.044-.827-.128-.512-.463-.966-.693-1.452-.237-.505-.37-1.042-.72-1.505l-.006-.006c-2.57-3.427-7.265-4.158-10.83-1.97-.235.142-.503.18-.727.347l-1.967 1.486-1.212.915c-14.604 11.01-35.017 11.04-49.652.074l-3.315-2.485c-1.766-1.325-3.886-1.795-5.916-1.555-.067.008-.135-.02-.203-.01-.435.063-.823.3-1.243.43-1.602.495-3.11 1.34-4.193 2.788-2.74 3.645-2 8.823 1.655 11.556l3.306 2.484c.01.008.023.012.034.02l29.693 22.27c1.46 1.098 3.202 1.655 4.952 1.655 1.596 0 3.193-.46 4.587-1.387 1.853-1.24 20.802-15.525 30.233-22.648.01-.008.023-.013.033-.022l3.145-2.38.005-.005h.002c.148-.112.215-.28.353-.4.71-.614 1.37-1.275 1.82-2.052.295-.51.387-1.086.565-1.637z"/></g><g fill="#877364"><path d="M90.84 319.8c-27.872 21.16-35.958-89.635 48.86-187.184 0 0-59.832-22.36-75.012-11.01-43.142 32.256-30.28 213.332-30.28 213.332l34.41 12.387 22.02-27.526z"/><path d="M156.904 171.153c74.323-8.258 82.58-66.065 82.58-66.065-8.258-41.29-140.387-162.064-211.613-16.515 0 0 80.86 2.065 82.926 4.13 2.064 2.063 46.108 78.45 46.108 78.45"/></g><path d="M90.84 319.8C74.322 402.38 0 369.346 0 195.927 0 122.243 41.29 39.024 74.323 39.024c66.065 0 82.58 132.13 82.58 132.13S46.454 53.475 46.454 268.185c0 107.355 44.386 51.613 44.386 51.613z" fill="#9F8976"/><g fill="#877364"><path d="M421.162 319.8c27.87 21.16 35.957-89.635-48.86-187.184 0 0 59.83-22.36 75.01-11.01 43.143 32.256 30.28 213.332 30.28 213.332l-34.408 12.387-22.022-27.526z"/><path d="M355.098 171.153c-74.323-8.258-82.58-66.065-82.58-66.065 8.257-41.29 140.386-162.065 211.612-16.516 0 0-80.86 2.065-82.925 4.13-2.065 2.064-46.107 78.45-46.107 78.45"/></g><g fill="#9F8976"><path d="M421.162 319.8c16.516 82.58 90.84 49.547 90.84-123.872 0-73.685-41.29-156.904-74.324-156.904-66.065 0-82.58 132.13-82.58 132.13s110.45-117.68 110.45 97.03c0 107.357-44.386 51.615-44.386 51.615zM164.598 199.3s-36.276-43.532-102.028-35.39c-8.497 1.053-14.28 9.18-12.787 17.608 3.55 20.037 18.994 53.363 81.782 59.07l33.033-41.29z"/></g><path d="M82.162 163.05c-6.23-.17-12.71.007-19.59.86-8.497 1.053-14.28 9.178-12.788 17.607 3.55 20.037 18.994 53.363 81.782 59.07 0 .002 6.903-55.616-49.404-77.536z" fill="#CFBAA4"/><path d="M347.403 199.3s36.276-43.532 102.028-35.39c8.498 1.053 14.28 9.18 12.788 17.608-3.55 20.037-18.994 53.363-81.782 59.07l-33.033-41.29z" fill="#9F8976"/><path d="M429.84 163.05c6.228-.17 12.71.007 19.59.86 8.496 1.053 14.28 9.178 12.787 17.607-3.55 20.037-18.994 53.363-81.782 59.07 0 .002-6.903-55.616 49.404-77.536z" fill="#CFBAA4"/></svg>