<svg xmlns="http://www.w3.org/2000/svg" viewBox="0 0 385.94 385.94"><path d="M342.72 215.78c0 92.19-73.3 167.25-164.8 170.07-1.78.06-3.57.09-5.36.09-45.14 0-86.18-17.59-116.63-46.27-32.95-31.03-53.52-75.06-53.52-123.89 0-75.09 48.64-138.82 116.14-161.4 16.97-5.68 35.13-8.75 54.01-8.75 39.2 0 75.3 13.25 104.06 35.52 40.21 31.12 66.1 79.85 66.1 134.63z" fill="#B4D87D"/><path d="M372.77 114.37h-86.55c-16.5-24-12-114.37-12-114.37 14.844 23.996 34.413 44.723 57.517 60.92l45.17 31.67c2.14 1.5 3.92 3.46 5.21 5.737 4.06 7.163-1.114 16.043-9.348 16.043z" fill="#F45D5D"/><path d="M286.22 114.37h-18c-131.86 13.34-110.3 183.99-90.3 271.48-1.78.06-3.57.09-5.36.09-45.14 0-86.18-17.59-116.63-46.27 5.32-137.6 32.98-223.81 54.69-271.27 2.26-4.94 4.91-9.62 7.93-14.02 14.55-21.27 37.36-35.86 63.29-39.92L274.22 0s-2.29 46.06 2.4 81.15c1.88 14.06 4.88 26.35 9.6 33.22z" fill="#E6E6E6"/><circle cx="226.22" cy="45.369" r="11.999" fill="#4D4D4D"/></svg>