<svg xmlns="http://www.w3.org/2000/svg" viewBox="0 0 511.999 511.999"><path d="M474.118 164.835l9.157-9.64c2.29-2.41 2.473-6.114.37-8.69-9.594-11.758-37.815-43.037-74.96-54.68l7.57-12.778c1.893-3.192.783-7.392-2.46-9.194-99.117-55.067-177.4-21.89-208.27-2.473-3.863 2.43-4.124 7.926-.55 10.767l13.09 10.406c-20.27 13.513-37.19 28.67-47.58 38.738-4.277 4.145-1.36 11.37 4.594 11.37h168.86l142.192 181.82c8.475 10.838 25.867 4.845 25.867-8.913v-79.86c0-9.08-2.46-18.065-7.22-25.8-16.662-27.072-30.662-41.072-30.662-41.072z" fill="#5D5360"/><path d="M454.026 193.156l-9.004-11.393c-2.886-3.652-8.542-3.258-10.894.76l-5.57 9.513c-16.806-40.178-58.326-117.14-129.722-117.142-10.28 0-20.84 1.642-31.383 4.88-14.308 4.396-27.418 11.643-38.965 21.54L186.83 138.66h157.11l142.192 181.82c8.007 10.24 23.793 5.36 25.53-6.805-14.647-40.376-36.4-93.65-57.636-120.52z" fill="#4B3F4E"/><path d="M508.74 355.816c-9.777-29.807-39.897-117.252-67.682-152.41l-8.713 14.885c-2.86 4.885-10.15 4.192-11.95-1.173-13.945-41.62-62.227-147.915-148.087-121.54-11.452 3.518-22.63 9.348-33.06 18.29L4.463 324.36c-3.308 2.967-5.09 7.46-4.26 11.824C2.114 346.252 8 350.94 14.24 352.99c2.742.902 5.002 2.79 6.283 5.376l8.837 17.84c4.14 8.44 14.44 11.784 22.688 7.278 3.046-1.663 6.38-3.7 9.805-5.88l28.852 17.58c4.944 2.995 11.038 3.214 16.16.54 24.73-12.91 100.81-50.758 157.178-58.697 11.754-1.656 22.677-4.792 32.79-8.956l62.06 162.886c2.078 5.455 9.004 7.095 13.307 3.15l131.99-120.99c4.787-4.39 6.574-11.13 4.55-17.3z" fill="#C0826C"/><path d="M145.574 288.813c-27.263-4.052-49.594-12.826-56.79-40.05l-84.32 75.6C1.156 327.325-.627 331.816.2 336.18c1.905 10.033 7.753 14.72 13.97 16.782 2.708.898 4.952 2.797 6.23 5.348l8.957 17.897c4.14 8.44 14.438 11.783 22.687 7.277 2.995-1.635 6.272-3.638 9.635-5.774l29.02 17.474c4.93 2.985 11.06 3.202 16.17.535 15.48-8.082 51.065-25.924 89.342-40.092 12.313-34.46-12.916-61.207-50.64-66.815z" fill="#F5DCB4"/><path d="M266.625 23.037v82.43c0 9.002 7.206 16.683 17.037 18.163l19.235 2.895c13.163 1.98 24.966-7.86 23.693-19.855-5.785-54.492-31.155-79.217-46.985-89.518-5.43-3.533-12.98-.158-12.98 5.885z" fill="#AF6E5A"/><path d="M239.247 229.58c-13.694 0-24.796-11.102-24.796-24.797v-8.265c0-13.694 11.102-24.796 24.797-24.796 13.694 0 24.796 11.1 24.796 24.796v8.265c0 13.695-11.102 24.796-24.796 24.796z" fill="#4B3F4E"/><path d="M239.247 171.723v28.928c0 6.848 5.55 12.4 12.398 12.4 6.847 0 12.398-5.552 12.398-12.4v-4.132c0-13.694-11.102-24.795-24.796-24.795z" fill="#5D5360"/><circle cx="239.25" cy="188.249" r="8.265" fill="#FFF"/><path d="M349.597 323.908c-3.21-5.733-2.642-12.767 1.286-18.034 4.397-5.895 8.153-12.198 11.156-18.873 12.147-27.006 11.953-57.343-.558-87.733-1.735-4.22-6.546-6.23-10.792-4.496-4.22 1.74-6.23 6.57-4.496 10.793 10.743 26.08 11.01 51.896.767 74.658-9.324 20.734-27.09 37.58-50.158 47.775l62.088 162.962c2.08 5.456 9.005 7.095 13.31 3.15l48.044-44.04-70.647-126.16z" fill="#AF6E5A"/><g fill="#965A50"><path d="M37.437 339.266c-2.488-5.058-10.656-5.447-16.186 2.238-2.7 3.752-5.068 7.29-12.55 8.717 1.727 1.197 3.574 2.112 5.47 2.74 2.06.683 3.69 2.08 4.992 3.766 15.864-1.274 21.13-11.653 18.275-17.46zM78.17 387.638c14.113-8.872 29.895-20.636 42.784-33.645 3.214-3.24 3.19-8.475-.048-11.688-3.25-3.223-8.48-3.19-11.692.052-14.293 14.42-34.067 26.698-47.53 35.353l16.487 9.928z"/></g></svg>