<svg xmlns="http://www.w3.org/2000/svg" viewBox="0 0 512 512"><path d="M512 11.24s-8.25 143.994-107.348 168.768l-74.324-82.582C355.103 64.394 425.496-.082 512 11.24z" fill="#FF96A0"/><path d="M404.652 180.01l-39.494-43.883C379.878 89.17 445.943 23.103 510.57 24.792c-4.894 36.43-25.47 135.105-105.918 155.217z" fill="#E6646E"/><path d="M0 11.24s8.25 143.994 107.348 168.768l74.324-82.582C156.897 64.394 86.504-.082 0 11.24z" fill="#FF96A0"/><path d="M107.348 180.01l39.494-43.883C132.122 89.17 66.057 23.103 1.428 24.792 6.324 61.222 26.9 159.897 107.348 180.01z" fill="#E6646E"/><path d="M462.45 320.398c0 100.34-92.432 181.68-206.454 181.68S49.54 420.738 49.54 320.398c0-115.615 92.434-247.746 206.456-247.746S462.45 204.782 462.45 320.398z" fill="#FFAAB4"/><path d="M185.253 403.893c8.888 28.305 33.33 48.636 62.09 48.636h17.307c29.068 0 53.725-20.77 62.37-49.55l-141.767.913z" fill="#DC4655"/><path d="M348.818 372.484c0 52.988-64.93 36.235-92.75 36.235-27.238 0-92.71 16.752-92.71-36.236 0-54.12 41.464-92.106 92.677-92.106s92.783 37.987 92.783 92.106z" fill="#E6646E"/><path d="M121.112 323.363c0-98.217 56.178-207.355 134.96-250.707-.025 0-.05-.003-.076-.003-114.022 0-206.455 132.13-206.455 247.746 0 94.684 82.322 172.415 187.41 180.88-68.59-32.19-115.838-99.753-115.838-177.917z" fill="#FF96A0"/><g fill="#A5465A"><ellipse transform="rotate(-61.68 221.862 356.622)" cx="221.864" cy="356.619" rx="20.495" ry="16.703"/><ellipse transform="rotate(61.68 290.153 356.62)" cx="290.149" cy="356.62" rx="20.495" ry="16.703"/></g><path d="M165.156 270.85c-13.683 0-24.775-11.093-24.775-24.776v-8.258c0-13.683 11.093-24.775 24.776-24.775s24.775 11.093 24.775 24.776v8.258c0 13.683-11.092 24.775-24.774 24.775z" fill="#4B3F4E"/><path d="M165.155 213.042v28.904c0 6.84 5.546 12.387 12.387 12.387 6.84 0 12.387-5.546 12.387-12.387v-4.13c0-13.682-11.092-24.774-24.775-24.774z" fill="#5D5360"/><circle cx="165.16" cy="229.561" r="8.258" fill="#FFF"/><path d="M346.836 270.85c-13.683 0-24.775-11.093-24.775-24.776v-8.258c0-13.683 11.093-24.775 24.776-24.775s24.775 11.093 24.775 24.776v8.258c0 13.683-11.09 24.775-24.774 24.775z" fill="#4B3F4E"/><path d="M346.836 213.042v28.904c0 6.84 5.546 12.387 12.387 12.387s12.387-5.546 12.387-12.387v-4.13c0-13.682-11.09-24.774-24.774-24.774z" fill="#5D5360"/><circle cx="346.84" cy="229.561" r="8.258" fill="#FFF"/></svg>