<svg xmlns="http://www.w3.org/2000/svg" viewBox="0 0 512.008 512.008"><path d="M480.7.08c-6.64-2.533-113.75 56.475-141.78 129.86-16.585 43.408-23.966 86.145-23.496 115.373-20.893-11.222-41.543-17.75-59.42-17.75-17.878 0-38.528 6.515-59.42 17.75.483-29.227-6.913-71.965-23.482-115.372C145.07 56.556 37.947-2.45 31.306.08c-6.47 2.474 60.7 228.166 99.91 296.348-34.43 36.45-60.1 82.758-60.1 127.8 0 45.996 23.253 73.088 56.9 84.48 35.984 12.203 71.1-13.368 127.988-13.368s92.003 25.57 128 13.37c33.635-11.394 56.888-38.486 56.888-84.48 0-45.03-25.67-91.35-60.075-127.788C420 228.26 487.185 2.555 480.7.08" fill="#99AAB5"/><g fill="#F4ABBA"><path d="M180.51 254.87c-2.53-21.903-9.67-50.49-20.72-79.418-21.817-57.116-80.867-103.04-86.03-101.077-4.552 1.735 37.36 144.228 68.024 211.4 12.317-11.734 25.4-22.244 38.727-30.905M370.207 285.79c30.663-67.173 72.562-209.65 68.04-211.373-5.163-1.977-64.228 43.962-86.046 101.063-11.05 28.927-18.19 57.515-20.72 79.418 13.326 8.676 26.41 19.172 38.727 30.89"/></g><path d="M355.56 426.674c0 39.28-43.52 71.11-97.196 71.11-53.66 0-97.18-31.828-97.18-71.11s43.52-71.11 97.18-71.11c53.675-.002 97.195 31.828 97.195 71.11" fill="#CCD6DD"/><path d="M298.67 434.895c0 39.28-3.385 42.666-42.666 42.666-39.268 0-42.666-3.384-42.666-42.665-.002-14.222 85.332-14.222 85.332 0" fill="#FFF"/><g fill="#292F33"><path d="M199.114 346.006c0 11.777-9.543 21.334-21.334 21.334s-21.334-9.557-21.334-21.334c0-11.776 9.543-21.333 21.334-21.333s21.334 9.557 21.334 21.333M355.56 346.006c0 11.777-9.56 21.334-21.335 21.334s-21.334-9.557-21.334-21.334c0-11.776 9.56-21.333 21.335-21.333s21.334 9.557 21.334 21.333"/></g><path d="M298.67 367.34c0 23.565-28.445 42.665-42.666 42.665s-42.666-19.1-42.666-42.666c-.002-23.567 85.332-23.567 85.332 0" fill="#F4ABBA"/></svg>