<svg xmlns="http://www.w3.org/2000/svg" viewBox="0 0 512.001 512.001"><path d="M511.72 148.145C507.44 87.282 454.465 41.25 393.58 45.525c-45.155 3.176-83.013 33.126-97.073 74.91h-81.01c-14.06-41.784-51.918-71.734-97.074-74.91C57.544 41.262 4.56 87.284.28 148.146c-2.075 29.484 7.457 58.01 26.842 80.324 18.51 21.312 43.9 34.494 71.83 37.443l-7.765 81.335c-8.256 57.22 25.487 104.214 84.115 117.038 28.49 6.23 56.37.524 76.48-15.664 1.467-1.18 2.874-2.404 4.218-3.666 1.345 1.262 2.753 2.486 4.218 3.666 14.775 11.892 33.743 18.13 54.068 18.13 7.34 0 14.852-.813 22.41-2.468 58.657-12.83 92.4-59.95 84.116-117.346l-7.743-81.028c27.92-2.952 53.3-16.133 71.808-37.44 19.385-22.314 28.918-50.842 26.843-80.325z" fill="#96A8B0"/><g fill="#364A57"><path d="M206.394 293.39c-11.107 0-20.11-9.005-20.11-20.112v-10.726c0-11.106 9.003-20.11 20.11-20.11 11.106 0 20.11 9.003 20.11 20.11v10.726c0 11.106-9.003 20.11-20.11 20.11zM305.608 293.39c-11.107 0-20.11-9.005-20.11-20.112v-10.726c0-11.106 9.003-20.11 20.11-20.11s20.11 9.003 20.11 20.11v10.726c0 11.106-9.004 20.11-20.11 20.11z"/></g><g fill="#CE9696"><circle cx="107.834" cy="149.075" r="35.288"/><circle cx="404.173" cy="149.075" r="35.288"/></g><path d="M256.95 120.436h-41.454c-14.06-41.785-51.92-71.735-97.075-74.91C57.544 41.26 4.56 87.283.28 148.146c-2.075 29.483 7.457 58.01 26.842 80.323 18.51 21.312 43.9 34.494 71.83 37.443l-7.765 81.335c-8.256 57.22 25.487 104.214 84.115 117.038 28.49 6.23 56.37.524 76.48-15.664 1.467-1.18 2.874-2.404 4.218-3.666.31.29.633.57.95.857V120.436z" fill="#B9CED9"/><circle cx="107.834" cy="149.075" r="35.288" fill="#EAA9A9"/><g fill="#364A57"><path d="M351.18 369.464c-10.468 0-19.3-8.105-20.04-18.706-.777-11.08 7.574-20.693 18.654-21.468l99.287-6.956c11.093-.8 20.694 7.574 21.47 18.655.775 11.08-7.576 20.692-18.656 21.467l-99.287 6.957c-.48.034-.956.05-1.428.05zM435.05 453.237c-2.375 0-4.79-.422-7.14-1.317l-100.708-38.264c-10.383-3.944-15.602-15.56-11.656-25.944 3.944-10.383 15.558-15.606 25.944-11.655l100.708 38.263c10.383 3.944 15.602 15.56 11.656 25.944-3.053 8.03-10.697 12.973-18.805 12.973z"/></g><g fill="#476172"><path d="M206.394 293.39c-11.107 0-20.11-9.005-20.11-20.112v-10.726c0-11.106 9.003-20.11 20.11-20.11 11.106 0 20.11 9.003 20.11 20.11v10.726c0 11.106-9.003 20.11-20.11 20.11zM160.822 369.464c-.473 0-.948-.017-1.427-.05l-99.287-6.958c-11.08-.775-19.43-10.387-18.655-21.468.776-11.08 10.362-19.452 21.468-18.655l99.288 6.956c11.08.774 19.43 10.386 18.655 21.467-.743 10.6-9.574 18.707-20.04 18.707zM76.952 453.237c-8.11 0-15.752-4.942-18.804-12.974-3.943-10.383 1.275-21.997 11.658-25.943l100.71-38.264c10.377-3.944 21.996 1.274 25.942 11.658 3.944 10.383-1.275 21.997-11.658 25.943L84.092 451.92c-2.352.893-4.767 1.317-7.14 1.317z"/></g><path d="M265.386 406.01h-18.77c-11.107 0-20.11-9.005-20.11-20.112 0-11.107 9.003-20.11 20.11-20.11h18.77c11.107 0 20.11 9.003 20.11 20.11s-9.003 20.11-20.11 20.11z" fill="#AA5446"/><path d="M256.95 365.787h-10.334c-11.107 0-20.11 9.004-20.11 20.11 0 11.107 9.003 20.112 20.11 20.112h10.334v-40.223z" fill="#DD6B5B"/></svg>