<svg xmlns="http://www.w3.org/2000/svg" viewBox="0 0 512 512"><path d="M439.337 460.94c-4.052-30.384-22.61-56.696-48.96-71.04H330.07v79.02c2.255 2.353 4.626 4.603 7.125 6.725 17.28 14.7 39.224 22.66 61.672 22.66 4.17 0 8.356-.273 12.533-.83l32.237-4.3-4.3-32.236z" fill="#009A43"/><path d="M121.484 389.598c-26.646 14.274-45.436 40.744-49.517 71.34l-4.3 32.238 32.237 4.3c4.178.557 8.363.83 12.533.83 22.446 0 44.392-7.96 61.663-22.653 2.612-2.218 5.087-4.57 7.43-7.04V389.6h-60.046z" fill="#00C063"/><path d="M465.155 186.093c-26.523-16.364-60.258-26.057-93.24-26.9V268.27h140.086v-15c0-24.325-17.074-48.81-46.845-67.177z" fill="#009A43"/><g fill="#00C063"><path d="M46.845 186.093C17.075 204.46 0 228.945 0 253.27v15h140.083V159.194c-32.982.843-66.716 10.536-93.24 26.9zM340.67 98.363c0-46.687-37.982-84.67-84.67-84.67s-84.67 37.982-84.67 84.67c0 12.467 2.675 24.504 7.805 35.548H333v-.3c5.04-10.962 7.67-22.893 7.67-35.247z"/></g><path d="M256 13.693V119.28c28.672 0 54.635 4.99 76.865 14.63 5.13-11.044 7.805-23.08 7.805-35.548 0-46.687-37.982-84.67-84.67-84.67z" fill="#009A43"/><g fill="#844D01"><circle cx="274.48" cy="71.17" r="9.498"/><circle cx="237.53" cy="71.17" r="9.498"/></g><path d="M416.28 275.28v.82c-.03 9.95-.67 19.98-1.89 30-5.06 41.96-20.2 83.63-43.22 117.84-14.69 21.84-31.62 39.21-50.32 51.63-20.69 13.74-42.51 20.71-64.85 20.71s-44.16-6.97-64.85-20.71c-18.7-12.42-35.63-29.79-50.32-51.63-23.02-34.21-38.16-75.88-43.22-117.84-1.22-10.02-1.86-20.05-1.89-30v-.82c0-50.83 16.5-92.02 47.72-119.12 27.8-24.13 66.72-36.88 112.56-36.88s84.76 12.75 112.56 36.88c31.22 27.1 47.72 68.29 47.72 119.12z" fill="#FF9A00"/><path d="M368.56 156.162c-27.8-24.13-66.72-36.88-112.56-36.88v377c22.34 0 44.16-6.97 64.85-20.71 18.7-12.42 35.63-29.79 50.32-51.63 23.02-34.21 38.16-75.88 43.22-117.84 1.22-10.02 1.86-20.05 1.89-30v-.82c0-50.83-16.5-92.02-47.72-119.12z" fill="#D86100"/><path d="M414.39 306.1c1.22-10.02 1.86-20.05 1.89-30h-83.096l-24.177-41.875 68.974-68.974c-1.4-1.51-2.86-2.99-4.35-4.43-1.64-1.6-3.33-3.15-5.07-4.66-4.27-3.71-8.81-7.15-13.59-10.32l-70.916 70.918h-56.106L157.03 145.84c-4.78 3.17-9.32 6.61-13.59 10.32-1.74 1.51-3.43 3.06-5.07 4.66-1.49 1.44-2.95 2.92-4.35 4.43l68.975 68.975-24.177 41.876H95.72c.03 9.95.67 19.98 1.89 30h81.207l24.177 41.877-67.564 67.564c1.75 2.85 3.55 5.65 5.4 8.4 3.91 5.8 7.97 11.29 12.18 16.45l12.24-12.25 62.697-62.697h56.104l62.3 62.307 12.64 12.64c4.21-5.16 8.27-10.65 12.18-16.45 1.85-2.75 3.66-5.56 5.4-8.41l-11.83-11.83-55.734-55.725 24.177-41.875h81.207zm-107.187-15L281.6 335.445H230.4L204.796 291.1l25.602-44.342H281.6l25.603 44.343z" fill="#FFB74D"/><path d="M414.39 306.1c1.22-10.02 1.86-20.05 1.89-30h-83.096l-24.177-41.875 68.974-68.974c-1.4-1.51-2.86-2.99-4.35-4.43-1.64-1.6-3.33-3.15-5.07-4.66-4.27-3.71-8.81-7.15-13.59-10.32l-70.916 70.918H256v30h25.602l25.602 44.343-25.602 44.344H256v30h28.052l62.298 62.307 12.64 12.64c4.21-5.16 8.27-10.65 12.18-16.45 1.85-2.75 3.66-5.56 5.4-8.41l-11.83-11.83-55.733-55.724 24.177-41.875h81.206z" fill="#FF9A00"/></svg>