<svg xmlns="http://www.w3.org/2000/svg" viewBox="0 0 512 512"><g fill="#5C3C1E"><path d="M144.03 427.385s8.31 61.543 9.747 80.312c.186 2.43 2.296 4.303 4.84 4.303h10.49c2.28 0 4.252-1.517 4.74-3.65 2.3-10.076 8.262-56.907 6.157-74.075l-35.975-6.89zM367.974 427.385s-8.31 61.543-9.748 80.312c-.186 2.43-2.296 4.303-4.84 4.303h-10.49c-2.28 0-4.252-1.517-4.74-3.65-2.3-10.076-8.262-56.907-6.157-74.075l35.974-6.89z"/></g><path d="M256.13 450.16c47.457 36.714 91.4-9.948 91.4-9.948 31.286 15.198 58.938-3.428 53.375-30.375 66.85-4.915 54.626-70.042 54.626-70.042 47.932-13.193 14.727-67.627 14.727-67.627 25.108-15.047 30.154-40.67 31.36-58.702 1.273-19.025-5.433-53.194-43.478-68.737 3.88-44.55-44.773-47.073-44.773-47.073-10.102-68.597-71.692-55.44-71.692-55.44-15.167-35.882-37.073-28.732-55.077-27.126C280.603 6.09 269.143 0 256.002 0 242.86 0 231.4 6.09 225.406 15.09c-18.004-1.605-39.91-8.755-55.08 27.128 0 0-61.59-13.158-71.69 55.44 0 0-48.655 2.52-44.774 47.07-38.045 15.544-44.75 49.713-43.48 68.738 1.208 18.033 6.254 43.655 31.362 58.702 0 0-33.205 54.434 14.726 67.627 0 0-12.225 65.126 54.627 70.042-5.563 26.947 22.09 45.573 53.375 30.375 0 0 43.943 46.662 91.4 9.95" fill="#FFF3DC"/><g fill="#E6CFA8"><ellipse cx="244.576" cy="247.916" rx="105.871" ry="123.333"/><path d="M261.39 427.385c-44.558 28.025-106.77-8.658-101.128-36.99-67.783-5.166-47.62-74.026-47.62-74.026-48.6-13.87-31.077-76.912-31.077-76.912-25.46-15.82-22.197-36.556-23.422-55.515-1.29-20 5.51-55.925 44.085-72.266.87-16.606 2.845-30.628 5.517-42.468-4.162 7.416-7.387 16.74-9.11 28.446 0 0-48.655 2.522-44.774 47.072-38.045 15.543-44.75 49.712-43.478 68.737 1.207 18.033 6.253 43.655 31.36 58.702 0 0-33.204 54.434 14.727 67.627 0 0-12.226 65.126 54.625 70.042-5.563 26.947 22.09 45.573 53.375 30.375 0 0 43.943 46.663 91.4 9.95h.258c25.633 19.83 50.237 15.333 67.45 7.005-33.225-5.76-62.187-29.78-62.187-29.78z"/></g><g fill="#5C3C1E"><ellipse cx="162.602" cy="166.88" rx="42.723" ry="42.76"/><ellipse cx="349.908" cy="166.88" rx="42.723" ry="42.76"/></g><ellipse cx="256.002" cy="235.595" rx="98.423" ry="117.803" fill="#7D522A"/><path d="M180.447 224.202c1.21-28.694 12.736-70.655 27.004-91.096-29.782 20.255-49.874 58.564-49.874 102.494 0 65.063 44.068 117.806 98.427 117.806 30.365 0 57.514-16.462 75.57-42.33-103.244 60.26-153.72-25.434-151.126-86.874z" fill="#6B4623"/><g fill="#4A3018"><circle cx="228.332" cy="220.764" r="7.24"/><circle cx="283.671" cy="220.764" r="7.24"/><path d="M299.093 291.202c-3.906-2.165-8.826-.753-10.99 3.15-.086.156-7.68 13.494-24.016 17.023v-21.353c7.243-3.133 12.316-10.344 12.316-18.744 0-11.276-9.133-20.417-20.4-20.417s-20.4 9.142-20.4 20.418c0 8.4 5.073 15.61 12.316 18.744v21.354c-16.014-3.456-23.618-16.328-24.036-17.058-2.175-3.878-7.076-5.276-10.97-3.116-3.906 2.164-5.317 7.085-3.152 10.99.593 1.07 14.887 26.206 46.24 26.206 31.354 0 45.65-25.137 46.242-26.207 2.163-3.903.753-8.824-3.15-10.988z"/></g></svg>