<svg xmlns="http://www.w3.org/2000/svg" viewBox="0 0 512 512"><path d="M471.358 91.91c-42.565-18.985-103.056 21.864-142.167 92.924l132.21 145.8c9.786-14.166 18.74-30.023 26.42-47.242 37.834-84.82 30.464-170.55-16.462-191.48z" fill="#EBC9A0"/><path d="M447.443 136.77c-31.775-14.172-76.93 16.322-106.127 69.367l98.694 108.838c7.304-10.574 13.988-22.41 19.72-35.265 28.244-63.318 22.742-127.314-12.287-142.94z" fill="#8B534F"/><path d="M452.235 371.648l15.146-30.977c1.29-2.633 1.423-5.698.227-8.376-12.388-27.738-42.99-74.223-42.99-74.223L387.68 269.12l64.555 102.53z" fill="#F5DCB4"/><path d="M231.986 483.844h-16.57v-47.58c0-4.574-3.706-8.284-8.285-8.284s-8.284 3.71-8.284 8.285v47.58H157.42c-4.58 0-8.285 3.71-8.285 8.284s3.706 8.284 8.285 8.284h74.567c4.58 0 8.285-3.71 8.285-8.285 0-4.577-3.706-8.286-8.286-8.286z" fill="#FFC850"/><path d="M383.192 258.07l-61.104 29s64.29 43.18 117.594 116.146c2.756 3.772 8.53 3.217 10.393-1.067l7.176-16.5c3.39-7.787 2.836-16.76-1.415-24.11-47.425-82.033-72.643-103.47-72.643-103.47z" fill="#EBC9A0"/><path d="M491.36 235.287h-1.78c-4.58 0-8.284-3.71-8.284-8.285s3.706-8.285 8.285-8.285h1.78c4.58 0 8.286 3.71 8.286 8.285s-3.706 8.285-8.285 8.285z" fill="#F5DCB4"/><g fill="#AF6E5A"><path d="M457.76 218.716H410.89l31.923-58.514c2.193-4.017.712-9.05-3.31-11.243-3.988-2.194-9.045-.713-11.237 3.304l-24.412 44.747-4.457-26.75c-.753-4.512-5.017-7.558-9.532-6.81-4.515.752-7.565 5.02-6.813 9.535l6.36 38.16 4.135 24.14h64.21c4.58 0 8.286-3.71 8.286-8.284s-3.708-8.284-8.287-8.284z"/><path d="M148.657 132.78c-17.968-2.72-32.8-14.117-38.422-30.057H49.71C49.71 152.435 0 169.005 0 243.573c0 114.394 95.177 166.75 215.416 169.155 69.043 1.38 113.922-14.5 125.062-37.39l40.646-138.398c8.918-4 17.914-8.492 26.984-13.523 3.617-2.007 3.634-7.365.022-9.38-97.51-54.402-208.362-73.513-259.473-81.256z"/><path d="M162.08 402.372l19.27 34.252c4.914 8.734 13.765 14.08 23.316 14.08h4.054c10.3 0 19.715-6.207 24.32-16.03l13.445-28.677-84.405-3.625z"/></g><path d="M454.96 128.267c-1.344 0-2.703-.324-3.958-1.01-4.02-2.19-5.502-7.222-3.31-11.24l4.516-8.28c2.193-4.025 7.25-5.498 11.238-3.31 4.02 2.19 5.502 7.222 3.31 11.24l-4.516 8.28c-1.504 2.758-4.344 4.32-7.28 4.32z" fill="#F5DCB4"/><path d="M340.478 375.338l9.12-31.057c-9.632 3.493-11.55 18.083-26.474 21.5-138.778 31.76-252.01-6.905-281.698-89.067-24.057-66.576 24.856-132.564 24.856-157.42v-16.57h-16.57C49.712 152.436 0 169.006 0 243.574c0 114.394 95.177 166.75 215.416 169.155 69.043 1.382 113.922-14.5 125.062-37.39z" fill="#8B534F"/><path d="M404.576 374.655C144.398 388.803 99.423 251.857 99.423 251.857s115.993 41.426 281.698 24.856l30.03 88.21c1.564 4.597-1.726 9.468-6.574 9.732z" fill="#824646"/><path d="M400.323 227.538s-112.066 64.02-300.9 24.32L161.8 277.31c50.12 20.45 104.497 28.98 158.326 23.278 39.778-4.214 84.977-14.31 122.975-36.555 3.28-1.92 3.6-6.547.707-9.01-7.77-6.613-23.117-18.355-43.484-27.485z" fill="#8B534F"/><path d="M107.708 88.693v-35.68c0-22.88-18.547-41.427-41.426-41.427-32.03 0-57.997 25.966-57.997 57.997v57.997c0 4.575 3.71 8.285 8.285 8.285s8.285-3.71 8.285-8.285V82.01c0-6.864 5.564-12.428 12.428-12.428S49.71 75.146 49.71 82.01v20.713c0 31.837-20.356 50.14-35.02 78.73 29.882 16.635 51.887-11.945 61.69-38.6 9.47-25.753 26.476-31.54 37.47-32.402-3.837-6.342-6.142-13.67-6.142-21.757z" fill="#E6646E"/><circle cx="57.997" cy="44.727" r="8.285" fill="#4B3F4E"/><path d="M44.116 183.816c9.364-28.566 22.166-51.9 22.166-64.523V98.58c0-16.014-12.983-28.997-28.998-28.997 6.864 0 12.428 5.564 12.428 12.428v20.714c0 31.837-20.357 50.14-35.02 78.73 10.938 6.09 20.808 6.08 29.424 2.362z" fill="#DC4655"/></svg>