<?xml version="1.0" encoding="iso-8859-1"?>
<!-- Generator: Adobe Illustrator 19.0.0, SVG Export Plug-In . SVG Version: 6.00 Build 0)  -->
<svg version="1.1" id="Layer_1" xmlns="http://www.w3.org/2000/svg" xmlns:xlink="http://www.w3.org/1999/xlink" x="0px" y="0px"
	 viewBox="0 0 512 512" style="enable-background:new 0 0 512 512;" xml:space="preserve">
<path style="fill:#40332B;" d="M147.064,294.128h54.468v43.574c0,8.069-2.924,15.455-7.77,21.155
	c-15.737,18.51-24.91,41.699-24.91,65.993l0,0c0,6.017-4.877,10.894-10.894,10.894v21.787h-43.574l7.883-15.765
	c1.845-3.691,5.618-6.022,9.743-6.022h15.055V294.128z"/>
<path style="fill:#5E4B3D;" d="M122.266,441.767l-7.883,15.765h43.574v-21.787h-25.949
	C127.883,435.745,124.111,438.076,122.266,441.767z"/>
<path style="fill:#40332B;" d="M430.298,294.128H375.83l0,0v43.574l0,0v98.043h-15.055c-4.126,0-7.898,2.331-9.743,6.022
	l-7.883,15.765h43.574v-21.787c6.017,0,10.894-4.877,10.894-10.894c0-24.295,9.174-47.483,24.91-65.994
	c4.847-5.701,7.77-13.086,7.77-21.155h54.468v-43.574H430.298z"/>
<g>
	<path style="fill:#5E4B3D;" d="M386.723,435.745v21.787h-43.574l7.883-15.765c1.845-3.691,5.618-6.022,9.743-6.022H386.723z"/>
	<path style="fill:#5E4B3D;" d="M506.553,163.404v87.149c0,6.017-4.877,10.894-10.894,10.894v-98.043
		c0-6.017-4.877-10.894-10.894-10.894v108.936v76.255c0,8.069-2.924,15.455-7.77,21.155c-15.737,18.51-24.91,41.697-24.91,65.993
		l0,0c0,6.017-4.877,10.894-10.894,10.894v21.787h-43.574l7.883-15.765c1.845-3.691,5.618-6.022,9.743-6.022h15.055v-119.83H256
		v21.787c0,8.069-2.924,15.455-7.77,21.155c-15.737,18.51-24.91,41.697-24.91,65.993l0,0c0,6.017-4.877,10.894-10.894,10.894v21.787
		h-43.574l7.883-15.765c1.845-3.691,5.618-6.022,9.743-6.022h15.055v-98.043l0,0c-42.115,0-76.255-34.141-76.255-76.255l0,0H24.043
		c-7.058,0-13.703-4.013-16.884-10.775c-1.193-2.535-1.712-5.337-1.712-8.139v-13.767l0,0c0-48.131,39.018-87.149,87.149-87.149
		h21.787c6.017,0,10.894-4.877,10.894-10.894l0,0c0-42.115,34.141-76.255,76.255-76.255l0,0c36.01,0,71.717,6.571,105.367,19.391
		l177.867,67.758C496.799,141.617,506.553,151.371,506.553,163.404z"/>
</g>
<path style="fill:#6D5740;" d="M394.684,107.309c-27.1,64.928-91.187,110.564-165.939,110.564c-2.621,0-4.745,2.124-4.745,4.745
	v17.042l0,0c-13.203,0-25.026-5.88-33.016-15.155c-3.22,31.952-29.452,57.11-61.872,58.65c-2.04-6.882-3.154-14.163-3.154-21.708
	v-43.574h-0.681v-87.98c0.448-41.73,34.399-75.424,76.235-75.424l0,0c36.01,0,71.717,6.571,105.367,19.391L394.684,107.309z"/>
<path style="fill:#40332B;" d="M430.298,314.542v1.373l0,0v21.787H375.83v-21.787h-76.255H256v-1.373
	c15.702-4.042,27.978-16.615,31.593-32.484c1.287-5.644,6.193-9.718,11.982-9.718h87.149c5.789,0,10.695,4.074,11.982,9.718
	C402.32,297.927,414.596,310.501,430.298,314.542z"/>
<g>
	<path style="fill:#937A55;" d="M495.66,239.66L495.66,239.66c-12.033,0-21.787,9.754-21.787,21.787l0,0
		c0,12.033,9.754,21.787,21.787,21.787h10.894v-32.681C506.553,244.537,501.676,239.66,495.66,239.66z"/>
	<path style="fill:#937A55;" d="M367.32,97.18c-32.958,40.414-83.139,66.224-139.353,66.224c-2.621,0-4.745,2.124-4.745,4.745
		v17.042l0,0c-13.203,0-25.026-5.88-33.016-15.155c-2.154,21.369-14.608,39.687-32.314,49.945
		c-0.676,14.165-8.099,26.562-19.144,34.024c-30.512,20.613-57.464,46.059-81.427,74.017l-8.299,9.68
		c-12.033,0-21.787-9.754-21.787-21.787V272.34v-10.894h-3.191c-7.058,0-13.703-4.013-16.884-10.775
		c-1.193-2.535-1.712-5.337-1.712-8.139v-13.767l0,0c0-7.005,0.85-13.807,2.41-20.333c-0.247-0.432-0.481-0.877-0.697-1.336
		c-1.193-2.535-1.712-5.337-1.712-8.139v-13.767l0,0c0-48.131,39.018-87.149,87.149-87.149h21.787
		c5.673,0,11.088,1.096,16.058,3.069c11.56-27.406,38.679-46.643,70.291-46.643l0,0c36.01,0,71.717,6.571,105.367,19.391
		L367.32,97.18z"/>
</g>
<path style="fill:#5E4B3D;" d="M157.957,174.298c0,1.862-0.119,3.695-0.345,5.495c0.219,1.77,0.345,3.569,0.345,5.399v32.681
	c0,15.041-7.621,28.302-19.212,36.133c-30.512,20.613-57.464,46.059-81.427,74.017l-8.298,9.68
	c-12.033,0-21.787-9.754-21.787-21.787V272.34V239.66c0-6.017-4.877-10.894-10.894-10.894H5.447l0,0
	c0-7.005,0.85-13.807,2.41-20.333c-0.247-0.432-0.481-0.877-0.697-1.336c-1.193-2.535-1.712-5.337-1.712-8.139v-13.767l0,0
	c0-48.131,39.018-87.149,87.149-87.149h21.787c24.065,0,43.574,19.509,43.574,43.574V174.298z"/>
<path style="fill:#40332B;" d="M152.511,141.617h-10.894c-3.008,0-5.447,2.439-5.447,5.447v0.4
	c-0.023-0.013-0.044-0.028-0.066-0.041c-6.517,19.053-16.704,36.399-29.715,51.204c-11.712,13.327-21.995,27.815-31.574,42.748
	c-7.744,12.073-21.279,20.073-36.688,20.073H27.234v54.468c0,12.033,9.754,21.787,21.787,21.787l8.298-9.68
	c23.964-27.957,50.916-53.404,81.428-74.017c11.591-7.831,19.211-21.092,19.211-36.133v-32.681c0-3.942-0.532-7.758-1.514-11.39
	c7.121-1.763,12.408-8.178,12.408-15.844C168.851,148.933,161.535,141.617,152.511,141.617z"/>
<path style="fill:#5E4B3D;" d="M157.957,152.511L157.957,152.511c0,6.017-4.877,10.894-10.894,10.894s-10.894-4.877-10.894-10.894
	v-10.894h10.894C153.08,141.617,157.957,146.494,157.957,152.511z"/>
<path style="fill:#6D5740;" d="M103.489,65.362v61.004c0,8.423-6.828,15.251-15.251,15.251s-15.251-6.828-15.251-15.251V87.149
	c0-12.033,9.754-21.787,21.787-21.787H103.489z"/>
<path style="fill:#AF8D5D;" d="M103.489,65.362v61.004c-8.423,0-15.251-6.828-15.251-15.251V80.613c0-0.045,0-0.089,0-0.134
	c0.037-8.265,6.852-15.08,15.117-15.117C103.4,65.362,103.445,65.362,103.489,65.362z"/>
<path style="fill:#352720;" d="M38.128,179.745c0-9.024,7.316-16.34,16.34-16.34s16.34,7.316,16.34,16.34s-7.316,16.34-16.34,16.34
	S38.128,188.769,38.128,179.745z"/>
<path style="fill:#281B15;" d="M54.468,174.298c-3.008,0-5.447,2.439-5.447,5.447s2.439,5.447,5.447,5.447s5.447-2.439,5.447-5.447
	S57.476,174.298,54.468,174.298z"/>
<path d="M163.53,435.677c-2.426-1.778-2.951-5.186-1.173-7.614c0.685-0.935,1.048-2.046,1.048-3.214
	c0-18.468,5.091-36.918,14.723-53.358c1.521-2.595,4.855-3.469,7.452-1.947c2.596,1.521,3.467,4.857,1.947,7.452
	c-8.654,14.773-13.228,31.319-13.228,47.853c0,3.499-1.09,6.837-3.155,9.654c-1.066,1.455-2.721,2.227-4.398,2.227
	C165.628,436.732,164.5,436.388,163.53,435.677z M395.511,436.732c1.677,0,3.33-0.771,4.398-2.227
	c2.064-2.816,3.155-6.155,3.155-9.654c0-15.953,4.276-31.979,12.365-46.35c1.476-2.621,0.547-5.942-2.074-7.419
	c-2.62-1.475-5.942-0.548-7.419,2.074c-9.006,15.998-13.766,33.875-13.766,51.695c0,1.167-0.363,2.278-1.048,3.214
	c-1.778,2.427-1.253,5.835,1.173,7.614C393.266,436.388,394.394,436.732,395.511,436.732z M512,163.404v87.149v32.681
	c0,3.008-2.439,5.447-5.447,5.447H495.66c-1.865,0-3.686-0.19-5.447-0.548v49.569c0,9.04-3.22,17.806-9.068,24.684
	c-15.227,17.912-23.613,40.096-23.613,62.465c0,3.499-1.09,6.837-3.155,9.654c-5.062,6.905-7.739,14.514-7.739,22.002v1.025
	c0,3.008-2.439,5.447-5.447,5.447h-43.574c-1.888,0-3.641-0.977-4.633-2.584c-0.992-1.606-1.083-3.61-0.239-5.3l7.883-15.765
	c2.785-5.571,8.386-9.033,14.616-9.033h4.16c3.003,0,5.447-2.443,5.447-5.447v-83.154c0-3.008,2.439-5.447,5.447-5.447
	c3.008,0,5.447,2.439,5.447,5.447v83.155c0,9.01-7.33,16.34-16.34,16.34h-4.16c-2.076,0-3.943,1.154-4.872,3.011l-3.942,7.883
	h29.543c0.862-8.329,4.143-16.553,9.617-24.02c0.685-0.935,1.048-2.046,1.048-3.214c0-24.952,9.306-49.641,26.207-69.521
	c4.176-4.911,6.474-11.171,6.474-17.628v-54.483c-6.61-4.974-10.894-12.882-10.894-21.772c0-8.89,4.283-16.799,10.894-21.772
	v-63.924c0-3.008,2.439-5.447,5.447-5.447c3.008,0,5.447,2.439,5.447,5.447v59.011c1.76-0.358,3.582-0.548,5.447-0.548
	c1.912,0,3.74,0.348,5.447,0.953v-71.763c0-9.01-7.33-16.34-16.34-16.34c-0.662,0-1.319-0.121-1.939-0.357L304.961,78.948
	c-33.154-12.63-67.952-19.033-103.429-19.033c-26.962,0-51.259,15.121-63.244,38.927c14.276,8.011,24.164,22.951,25.051,40.237
	c6.537,3.765,10.959,10.809,10.959,18.879c0,7.853-4.249,15.011-10.893,18.851l-0.001,32.687
	c11.996-9.967,19.801-24.331,21.381-40.007c0.218-2.166,1.705-3.995,3.781-4.648c2.076-0.658,4.342-0.01,5.765,1.639
	c6.061,7.035,14.398,11.567,23.443,12.873V168.15c0-5.62,4.572-10.192,10.191-10.192c43.701,0,85.5-16.248,117.698-45.751
	c2.218-2.033,5.663-1.882,7.695,0.337c2.033,2.218,1.882,5.664-0.337,7.695c-34.039,31.19-78.179,48.436-124.355,48.612v16.342
	c0,3.008-2.439,5.447-5.447,5.447c-10.703,0-20.993-3.495-29.408-9.812c-4.422,17.369-15.398,32.61-30.712,42.346
	c-1.546,14.258-9.254,27.205-21.306,35.347c-3.654,2.469-7.29,5.039-10.911,7.701c0.252,3.776,0.802,7.52,1.647,11.19
	c27.716-3.061,50.21-25.432,53.033-53.451c0.218-2.166,1.705-3.995,3.781-4.648c2.076-0.658,4.342-0.011,5.765,1.639
	c6.061,7.035,14.398,11.567,23.443,12.873v-11.204c0-5.62,4.572-10.192,10.192-10.192c61.071,0,116.635-31.113,148.635-83.228
	c1.574-2.563,4.929-3.367,7.492-1.792c2.564,1.574,3.365,4.928,1.792,7.492c-16.273,26.502-39.134,48.666-66.113,64.097
	c-27.621,15.797-59.108,24.202-91.102,24.323v16.342c0,3.008-2.439,5.447-5.447,5.447c-10.702,0-20.991-3.494-29.404-9.81
	c-3.262,12.85-10.113,24.625-19.845,33.884c-10.727,10.204-24.34,16.747-38.873,18.798c10.696,26.37,36.787,44.277,65.654,44.277
	c3.008,0,5.447,2.439,5.447,5.447v87.149c0,9.01-7.33,16.34-16.34,16.34h-4.161c-2.076,0-3.942,1.154-4.872,3.011l-3.941,7.883
	h29.543c0.862-8.329,4.143-16.553,9.617-24.02c0.685-0.935,1.048-2.046,1.048-3.214c0-24.952,9.308-49.641,26.207-69.521
	c4.176-4.911,6.474-11.171,6.474-17.628c0,0,0.026-22.005,0.034-22.117c0.013-0.229,0.273-3.96,4.056-4.977
	c13.62-3.664,24.508-14.67,27.64-28.418c1.871-8.216,8.983-13.956,17.293-13.956h87.149c8.31,0,15.421,5.739,17.293,13.956
	c0.668,2.933-1.168,5.852-4.101,6.52c-2.933,0.672-5.853-1.168-6.52-4.101c-0.735-3.227-3.478-5.481-6.671-5.481h-87.149
	c-3.193,0-5.936,2.254-6.671,5.481c-2.335,10.249-7.782,19.2-15.34,25.859h152.734c3.008,0,5.447,2.439,5.447,5.447
	s-2.439,5.447-5.447,5.447h-49.021v114.383c0,3.008-2.439,5.447-5.447,5.447h-15.054c-2.076,0-3.943,1.154-4.872,3.011l-3.942,7.884
	h29.359c3.008,0,5.447,2.439,5.447,5.447c0,3.008-2.439,5.447-5.447,5.447h-38.172c-1.888,0-3.641-0.977-4.633-2.584
	c-0.992-1.606-1.083-3.61-0.239-5.3l7.883-15.765c2.785-5.571,8.386-9.033,14.616-9.033h9.607V321.362H261.447v16.34
	c0,9.04-3.22,17.806-9.068,24.684c-15.227,17.912-23.613,40.096-23.613,62.465c0,3.499-1.09,6.837-3.155,9.654
	c-5.062,6.905-7.739,14.514-7.739,22.002v1.025c0,3.008-2.439,5.447-5.447,5.447h-43.574c-1.888,0-3.641-0.977-4.633-2.584
	c-0.992-1.606-1.083-3.61-0.239-5.3l7.883-15.765c2.786-5.571,8.386-9.033,14.615-9.033h4.161c3.003,0,5.447-2.443,5.447-5.447
	v-81.886c-16.035-1.088-31.119-6.946-43.574-16.299v109.08c0,3.008-2.439,5.447-5.447,5.447H132.01
	c-2.076,0-3.943,1.154-4.872,3.011l-3.942,7.883h29.366c3.008,0,5.447,2.439,5.447,5.447c0,3.008-2.439,5.447-5.447,5.447h-38.179
	c-1.888,0-3.641-0.977-4.633-2.584c-0.992-1.606-1.083-3.61-0.239-5.3l7.883-15.765c2.785-5.571,8.386-9.033,14.616-9.033h9.607
	V316.881c-8.38-9.001-14.798-19.933-18.429-32.178c-1.046-3.528-1.842-7.133-2.402-10.78c-20.5,16.227-40.382,35.535-59.332,57.645
	l-8.298,9.68c-1.035,1.206-2.546,1.901-4.135,1.901c-15.017,0-27.234-12.217-27.234-27.234v-49.142
	c-8.388-0.804-15.909-6.026-19.557-13.783C0.751,249.843,0,246.325,0,242.532v-13.766c0-6.559,0.708-13.148,2.108-19.616
	C0.709,206.071,0,202.644,0,198.959v-13.767c0-41.732,27.635-77.981,67.54-89.147v-8.896c0-15.017,12.217-27.234,27.234-27.234
	h8.715c3.008,0,5.447,2.439,5.447,5.447v27.234h5.447c4.812,0,9.46,0.709,13.857,2.008c13.709-27.85,41.935-45.582,73.292-45.582
	c36.807,0,72.911,6.644,107.306,19.747L485.82,136.19C500.35,136.748,512,148.741,512,163.404z M78.434,126.366
	c0,5.405,4.399,9.804,9.804,9.804s9.804-4.399,9.804-9.804V70.809h-3.268c-9.01,0-16.34,7.33-16.34,16.34V126.366z M21.787,255.802
	V239.66c0-3.003-2.443-5.447-5.447-5.447h-5.447v8.319c0,2.178,0.402,4.135,1.194,5.82
	C13.977,252.368,17.578,255.081,21.787,255.802z M152.456,219.621c0-0.005,0-0.011,0-0.015c0.026-0.576,0.053-1.153,0.053-1.733
	v-44.525c0-2.308,1.454-4.366,3.631-5.135c4.343-1.536,7.263-5.657,7.263-10.254c0-6.007-4.887-10.894-10.894-10.894h-10.294
	c-0.74,0.927-1.574,3.331-1.867,4.176c-0.178,0.51-0.332,0.952-0.467,1.291c-1.989,5.026-5.733,14.226-8.458,19.365
	c-5.757,10.861-12.804,21.064-20.944,30.327c-10.308,11.73-20.185,25.105-31.082,42.094c-9.067,14.138-24.495,22.578-41.269,22.578
	h-5.447v49.021c0,8.209,6.085,15.023,13.981,16.17l6.522-7.608c25.998-30.33,53.759-55.559,82.514-74.985
	C145.739,242.707,151.907,231.638,152.456,219.621z M114.383,103.489h-5.447v22.877c0,11.413-9.285,20.698-20.698,20.698
	s-20.698-9.285-20.698-20.698v-18.949c-33.616,10.771-56.647,41.985-56.647,77.775v13.767c0,2.177,0.402,4.134,1.195,5.819
	c0.155,0.329,0.324,0.646,0.5,0.956c0.685,1.202,0.887,2.619,0.565,3.964c-1.073,4.489-1.768,9.05-2.076,13.619h5.263
	c9.01,0,16.34,7.33,16.34,16.34v16.34h5.447c13.046,0,25.047-6.567,32.102-17.566c11.2-17.46,21.39-31.252,32.069-43.403
	c7.58-8.626,14.142-18.127,19.503-28.238c2.478-4.676,6.047-13.455,7.953-18.271c0.088-0.224,0.187-0.516,0.304-0.853
	c1.193-3.44,3.989-11.497,11.558-11.497h10.498C149.464,117.719,133.557,103.489,114.383,103.489z M501.106,277.787V265.94
	c-1.707,0.607-3.535,0.953-5.447,0.953c-3.008,0-5.447-2.439-5.447-5.447c0-3.008,2.439-5.447,5.447-5.447
	c3.003,0,5.447-2.443,5.447-5.447c0-3.003-2.443-5.447-5.447-5.447c-9.01,0-16.34,7.33-16.34,16.34c0,9.01,7.33,16.34,16.34,16.34
	H501.106z"/>
<g>
</g>
<g>
</g>
<g>
</g>
<g>
</g>
<g>
</g>
<g>
</g>
<g>
</g>
<g>
</g>
<g>
</g>
<g>
</g>
<g>
</g>
<g>
</g>
<g>
</g>
<g>
</g>
<g>
</g>
</svg>
