<?xml version="1.0" encoding="iso-8859-1"?>
<!-- Generator: Adobe Illustrator 19.0.0, SVG Export Plug-In . SVG Version: 6.00 Build 0)  -->
<svg version="1.1" id="Layer_1" xmlns="http://www.w3.org/2000/svg" xmlns:xlink="http://www.w3.org/1999/xlink" x="0px" y="0px"
	 viewBox="0 0 512 512" style="enable-background:new 0 0 512 512;" xml:space="preserve">
<path style="fill:#B17E15;" d="M104.939,132.517c-22.564-5.793-53.734-15.948-74.087-31.431
	c-12.005-9.132-19.722-22.36-21.727-37.249c-2.002-14.854,1.909-29.626,11.013-41.593C29.24,10.277,42.432,2.566,57.282,0.529
	c14.882-2.042,29.692,1.866,41.697,10.998c20.005,15.218,37.857,41.956,49.311,61.709L104.939,132.517z"/>
<path style="fill:#EFC589;" d="M112.734,102.153c-16.18-4.152-45.866-13.056-62.903-26.017c-5.331-4.055-8.754-9.91-9.641-16.487
	c-0.885-6.569,0.854-13.113,4.896-18.427c4.043-5.314,9.886-8.736,16.453-9.638c6.571-0.901,13.13,0.835,18.462,4.892
	c12.389,9.425,27.011,28.063,41.173,52.483L112.734,102.153z"/>
<path style="fill:#9B640D;" d="M407.062,132.517c22.564-5.793,53.734-15.948,74.087-31.431c12.005-9.132,19.722-22.36,21.727-37.249
	c2.002-14.854-1.909-29.626-11.013-41.593c-9.104-11.967-22.296-19.678-37.145-21.714c-14.882-2.042-29.692,1.866-41.697,10.998
	c-20.005,15.218-37.857,41.956-49.311,61.709L407.062,132.517z"/>
<path style="fill:#B19267;" d="M399.268,102.153c16.18-4.153,45.866-13.056,62.903-26.017c5.331-4.055,8.754-9.91,9.641-16.487
	c0.885-6.569-0.854-13.113-4.896-18.427c-4.043-5.314-9.886-8.736-16.453-9.638c-6.571-0.901-13.13,0.835-18.462,4.892
	c-12.389,9.425-27.011,28.063-41.173,52.483L399.268,102.153z"/>
<g>
	<path style="fill:#B17E15;" d="M210.38,435.033h-31.346c0,42.44,34.527,76.967,76.967,76.967s76.967-34.527,76.967-76.967h-31.346
		H210.38z"/>
	<path style="fill:#B17E15;" d="M154.808,383.697c-15.568-18.928-37.468-85.903-41.7-99.136
		c-7.895-24.686-26.257-85.838-26.257-120.439c0-52.816,20.573-90.383,61.148-111.658c34.976-18.339,78.389-20.46,108.002-20.46
		c29.613,0,73.026,2.121,108.002,20.46c40.575,21.275,61.148,58.843,61.148,111.658c0,34.6-18.363,95.754-26.258,120.441
		c-4.232,13.234-26.134,80.21-41.702,99.137L154.808,383.697z"/>
</g>
<path style="fill:#EFC589;" d="M256.001,466.287c-74.474,0-101.7-55.005-102.822-57.346l-1.54-3.212v-3.563
	c0-63.603,12.199-111.717,36.26-143.004c25.567-33.247,56.143-36.837,68.102-36.837c11.96,0,42.535,3.59,68.102,36.837
	c24.061,31.287,36.26,79.401,36.26,143.004v3.563l-1.54,3.212C357.7,411.283,330.475,466.287,256.001,466.287z"/>
<path style="fill:#9B640D;" d="M256.001,512c40.669,0,74.05-31.711,76.768-71.703c-16.316,13.393-41.129,25.989-76.768,25.989V512z"
	/>
<path style="fill:#B17E15;" d="M179.233,440.297C181.95,480.289,215.332,512,256.001,512v-45.714
	C220.362,466.287,195.55,453.691,179.233,440.297z"/>
<path style="fill:#9B640D;" d="M425.151,164.121c0-52.816-20.573-90.383-61.148-111.658c-34.976-18.339-78.389-20.46-108.002-20.46
	v190.321c11.96,0,42.535,3.59,68.102,36.837c21.195,27.561,33.18,68.187,35.736,120.949c15.298-22.62,35.057-83.049,39.054-95.549
	C406.788,259.875,425.151,198.722,425.151,164.121z"/>
<path style="fill:#B19267;" d="M256.001,466.287V222.324c11.96,0,42.535,3.59,68.102,36.837
	c24.061,31.287,36.26,79.401,36.26,143.004v3.563l-1.54,3.212C357.7,411.283,330.475,466.287,256.001,466.287z"/>
<g>
	<path style="fill:#333333;" d="M155.368,193.308c0-11.513,9.228-20.835,20.569-20.835c11.355,0,20.582,9.323,20.582,20.835
		c0,11.51-9.227,20.842-20.582,20.842C164.598,214.15,155.368,204.818,155.368,193.308z"/>
	<path style="fill:#333333;" d="M315.482,193.308c0-11.513,9.228-20.835,20.569-20.835c11.355,0,20.582,9.323,20.582,20.835
		c0,11.51-9.227,20.842-20.582,20.842C324.71,214.15,315.482,204.818,315.482,193.308z"/>
	<path style="fill:#333333;" d="M208.069,325.112c0-6.525,5.231-11.809,11.658-11.809c6.435,0,11.665,5.284,11.665,11.809
		c0,6.524-5.23,11.812-11.665,11.812C213.3,336.924,208.069,331.635,208.069,325.112z"/>
	<path style="fill:#333333;" d="M280.61,325.112c0-6.525,5.231-11.809,11.658-11.809c6.435,0,11.665,5.284,11.665,11.809
		c0,6.524-5.23,11.812-11.665,11.812C285.84,336.924,280.61,331.635,280.61,325.112z"/>
</g>
<path style="fill:#3E2C27;" d="M240.328,465.43c4.977,0.553,10.194,0.858,15.673,0.858c5.479,0,10.696-0.305,15.673-0.858V360.492
	h-31.346V465.43z"/>
<path style="fill:#2E211D;" d="M256.001,360.492v105.794c5.479,0,10.696-0.305,15.673-0.858V360.492H256.001z"/>
<g>
</g>
<g>
</g>
<g>
</g>
<g>
</g>
<g>
</g>
<g>
</g>
<g>
</g>
<g>
</g>
<g>
</g>
<g>
</g>
<g>
</g>
<g>
</g>
<g>
</g>
<g>
</g>
<g>
</g>
</svg>
