<?xml version="1.0" encoding="iso-8859-1"?>
<!-- Generator: Adobe Illustrator 19.0.0, SVG Export Plug-In . SVG Version: 6.00 Build 0)  -->
<svg version="1.1" id="Capa_1" xmlns="http://www.w3.org/2000/svg" xmlns:xlink="http://www.w3.org/1999/xlink" x="0px" y="0px"
	 viewBox="0 0 512.008 512.008" style="enable-background:new 0 0 512.008 512.008;" xml:space="preserve">
<g transform="matrix(1.25 0 0 -1.25 0 45)">
	<g>
		<g>
			<path style="fill:#99AAB5;" d="M384.56,35.937c-5.313,2.025-90.999-45.181-113.425-103.89
				c-13.267-34.725-19.172-68.915-18.796-92.297c-16.714,8.977-33.234,14.199-47.536,14.199c-14.302,0-30.822-5.211-47.536-14.199
				c0.387,23.381-5.53,57.572-18.785,92.297C116.056-9.244,30.358,37.962,25.045,35.937c-5.177-1.98,48.56-182.534,79.929-237.079
				c-27.546-29.161-48.082-66.207-48.082-102.241c0-36.796,18.603-58.47,45.522-67.584c28.786-9.762,56.878,10.695,102.389,10.695
				s73.603-20.457,102.4-10.695c26.908,9.114,45.511,30.788,45.511,67.584c0,36.022-20.537,73.079-48.06,102.229
				C335.999-146.608,389.748,33.957,384.56,35.937"/>
			<g>
				<path style="fill:#F4ABBA;" d="M144.409-167.896c-2.025,17.522-7.737,40.391-16.577,63.534
					C110.378-58.669,63.138-21.93,59.007-23.5c-3.641-1.388,29.889-115.382,54.42-169.119
					C123.281-183.233,133.748-174.825,144.409-167.896"/>
				<path style="fill:#F4ABBA;" d="M296.166-192.631c24.53,53.737,58.049,167.72,54.431,169.097
					c-4.13,1.582-51.382-35.169-68.836-80.85c-8.841-23.142-14.552-46.012-16.577-63.534
					C275.845-174.859,286.313-183.256,296.166-192.631"/>
			</g>
			<path style="fill:#CCD6DD;" d="M284.447-305.339c0-31.425-34.816-56.889-77.756-56.889c-42.928,0-77.744,25.463-77.744,56.889
				s34.816,56.889,77.744,56.889C249.631-248.45,284.447-273.914,284.447-305.339"/>
			<path style="fill:#FFFFFF;" d="M238.936-311.916c0-31.425-2.708-34.133-34.133-34.133c-31.414,0-34.133,2.708-34.133,34.133
				C170.669-300.538,238.936-300.538,238.936-311.916"/>
			<g>
				<path style="fill:#292F33;" d="M159.291-240.805c0-9.421-7.634-17.067-17.067-17.067s-17.067,7.646-17.067,17.067
					c0,9.421,7.634,17.067,17.067,17.067S159.291-231.384,159.291-240.805"/>
				<path style="fill:#292F33;" d="M284.447-240.805c0-9.421-7.646-17.067-17.067-17.067s-17.067,7.646-17.067,17.067
					c0,9.421,7.646,17.067,17.067,17.067S284.447-231.384,284.447-240.805"/>
			</g>
			<path style="fill:#F4ABBA;" d="M238.936-257.871c0-18.853-22.756-34.133-34.133-34.133s-34.133,15.28-34.133,34.133
				C170.669-239.018,238.936-239.018,238.936-257.871"/>
		</g>
	</g>
</g>
<g>
</g>
<g>
</g>
<g>
</g>
<g>
</g>
<g>
</g>
<g>
</g>
<g>
</g>
<g>
</g>
<g>
</g>
<g>
</g>
<g>
</g>
<g>
</g>
<g>
</g>
<g>
</g>
<g>
</g>
</svg>
