<?xml version="1.0" encoding="iso-8859-1"?>
<!-- Generator: Adobe Illustrator 19.0.0, SVG Export Plug-In . SVG Version: 6.00 Build 0)  -->
<svg version="1.1" id="Layer_1" xmlns="http://www.w3.org/2000/svg" xmlns:xlink="http://www.w3.org/1999/xlink" x="0px" y="0px"
	 viewBox="0 0 512.001 512.001" style="enable-background:new 0 0 512.001 512.001;" xml:space="preserve">
<path style="fill:#96A8B0;" d="M511.721,148.145c-4.28-60.863-57.257-106.895-118.143-102.619
	c-45.155,3.175-83.013,33.125-97.073,74.91h-81.009c-14.06-41.785-51.919-71.735-97.075-74.91
	C57.543,41.261,4.559,87.283,0.279,148.145c-2.074,29.484,7.458,58.01,26.843,80.324c18.511,21.313,43.899,34.495,71.829,37.444
	l-7.764,81.335c-8.256,57.219,25.487,104.214,84.115,117.038c28.489,6.229,56.369,0.524,76.48-15.664
	c1.467-1.181,2.874-2.404,4.218-3.666c1.345,1.262,2.753,2.486,4.218,3.666c14.775,11.892,33.743,18.129,54.068,18.129
	c7.339,0,14.852-0.812,22.411-2.467c58.656-12.829,92.398-59.95,84.115-117.346l-7.743-81.028
	c27.922-2.952,53.302-16.133,71.809-37.441C504.263,206.156,513.796,177.628,511.721,148.145z"/>
<g>
	<path style="fill:#364A57;" d="M206.394,293.389c-11.107,0-20.111-9.004-20.111-20.111v-10.726
		c0-11.106,9.004-20.111,20.111-20.111c11.106,0,20.111,9.004,20.111,20.111v10.726
		C226.505,284.384,217.501,293.389,206.394,293.389z"/>
	<path style="fill:#364A57;" d="M305.608,293.389c-11.107,0-20.111-9.004-20.111-20.111v-10.726
		c0-11.106,9.004-20.111,20.111-20.111s20.111,9.004,20.111,20.111v10.726C325.718,284.384,316.714,293.389,305.608,293.389z"/>
</g>
<g>
	<circle style="fill:#CE9696;" cx="107.834" cy="149.075" r="35.288"/>
	<circle style="fill:#CE9696;" cx="404.173" cy="149.075" r="35.288"/>
</g>
<path style="fill:#B9CED9;" d="M256.95,120.436h-41.454c-14.06-41.785-51.919-71.735-97.075-74.91
	C57.543,41.261,4.559,87.283,0.279,148.145c-2.074,29.484,7.458,58.012,26.843,80.324c18.511,21.313,43.899,34.495,71.829,37.444
	l-7.764,81.335c-8.256,57.219,25.487,104.214,84.115,117.038c28.489,6.229,56.369,0.524,76.48-15.664
	c1.467-1.181,2.874-2.404,4.218-3.666c0.31,0.29,0.633,0.571,0.949,0.857V120.436H256.95z"/>
<circle style="fill:#EAA9A9;" cx="107.834" cy="149.075" r="35.288"/>
<g>
	<path style="fill:#364A57;" d="M351.179,369.464c-10.467,0-19.298-8.105-20.04-18.706c-0.776-11.081,7.575-20.693,18.655-21.468
		l99.287-6.956c11.092-0.799,20.693,7.574,21.468,18.655c0.776,11.081-7.575,20.693-18.655,21.468l-99.287,6.957
		C352.126,369.448,351.651,369.464,351.179,369.464z"/>
	<path style="fill:#364A57;" d="M435.049,453.237c-2.374,0-4.788-0.422-7.139-1.317l-100.708-38.264
		c-10.383-3.944-15.602-15.56-11.656-25.944c3.944-10.383,15.558-15.606,25.944-11.655l100.708,38.263
		c10.383,3.944,15.602,15.56,11.656,25.944C450.801,448.295,443.157,453.237,435.049,453.237z"/>
</g>
<g>
	<path style="fill:#476172;" d="M206.394,293.389c-11.107,0-20.111-9.004-20.111-20.111v-10.726
		c0-11.106,9.004-20.111,20.111-20.111c11.106,0,20.111,9.004,20.111,20.111v10.726
		C226.505,284.384,217.501,293.389,206.394,293.389z"/>
	<path style="fill:#476172;" d="M160.822,369.464c-0.473,0-0.948-0.017-1.427-0.051l-99.287-6.957
		c-11.08-0.775-19.431-10.387-18.655-21.468c0.776-11.08,10.362-19.452,21.468-18.655l99.287,6.956
		c11.08,0.775,19.431,10.387,18.655,21.468C180.12,361.358,171.289,369.464,160.822,369.464z"/>
	<path style="fill:#476172;" d="M76.952,453.237c-8.111,0-15.752-4.942-18.804-12.974c-3.943-10.383,1.275-21.997,11.658-25.943
		l100.709-38.264c10.378-3.944,21.997,1.274,25.943,11.658c3.944,10.383-1.275,21.997-11.658,25.943L84.092,451.92
		C81.74,452.813,79.325,453.237,76.952,453.237z"/>
</g>
<path style="fill:#AA5446;" d="M265.386,406.009h-18.77c-11.107,0-20.111-9.004-20.111-20.111c0-11.107,9.004-20.111,20.111-20.111
	h18.77c11.107,0,20.111,9.004,20.111,20.111C285.497,397.005,276.493,406.009,265.386,406.009z"/>
<path style="fill:#DD6B5B;" d="M256.95,365.787h-10.334c-11.107,0-20.111,9.004-20.111,20.111c0,11.106,9.004,20.111,20.111,20.111
	h10.334V365.787z"/>
<g>
</g>
<g>
</g>
<g>
</g>
<g>
</g>
<g>
</g>
<g>
</g>
<g>
</g>
<g>
</g>
<g>
</g>
<g>
</g>
<g>
</g>
<g>
</g>
<g>
</g>
<g>
</g>
<g>
</g>
</svg>
