<?xml version="1.0" encoding="iso-8859-1"?>
<!-- Generator: Adobe Illustrator 19.0.0, SVG Export Plug-In . SVG Version: 6.00 Build 0)  -->
<svg version="1.1" id="Capa_1" xmlns="http://www.w3.org/2000/svg" xmlns:xlink="http://www.w3.org/1999/xlink" x="0px" y="0px"
	 viewBox="0 0 512 512" style="enable-background:new 0 0 512 512;" xml:space="preserve">
<path style="fill:#009A43;" d="M439.337,460.939c-4.052-30.383-22.61-56.695-48.961-71.038H330.07v79.018
	c2.255,2.354,4.626,4.604,7.125,6.726c17.28,14.699,39.224,22.661,61.672,22.661c4.169,0,8.356-0.274,12.533-0.832l32.237-4.299
	L439.337,460.939z"/>
<path style="fill:#00C063;" d="M121.484,389.598c-26.646,14.274-45.436,40.744-49.517,71.341l-4.3,32.237l32.237,4.299
	c4.178,0.558,8.363,0.832,12.533,0.832c22.446,0,44.392-7.962,61.663-22.654c2.612-2.218,5.087-4.571,7.431-7.039v-79.016
	L121.484,389.598L121.484,389.598z"/>
<path style="fill:#009A43;" d="M465.155,186.093c-26.523-16.364-60.258-26.057-93.239-26.9V268.27h44.245h17.172H512v-15
	C512,228.945,494.926,204.459,465.155,186.093z"/>
<g>
	<path style="fill:#00C063;" d="M46.845,186.093C17.074,204.459,0,228.945,0,253.27v15h89.667h6.172h44.245V159.194
		C107.102,160.037,73.368,169.73,46.845,186.093z"/>
	<path style="fill:#00C063;" d="M340.67,98.363c0-46.687-37.982-84.67-84.67-84.67s-84.67,37.982-84.67,84.67
		c0,12.467,2.675,24.504,7.805,35.548H333v-0.301C338.04,122.648,340.67,110.717,340.67,98.363z"/>
</g>
<path style="fill:#009A43;" d="M256,13.693v105.588c28.672,0,54.635,4.988,76.865,14.629c5.13-11.044,7.805-23.08,7.805-35.548
	C340.67,51.675,302.688,13.693,256,13.693z"/>
<g>
	<circle style="fill:#844D01;" cx="274.48" cy="71.17" r="9.498"/>
	<circle style="fill:#844D01;" cx="237.53" cy="71.17" r="9.498"/>
</g>
<path style="fill:#FF9A00;" d="M416.28,275.281v0.82c-0.03,9.95-0.67,19.98-1.89,30c-5.06,41.96-20.2,83.63-43.22,117.84
	c-14.69,21.84-31.62,39.21-50.32,51.63c-20.69,13.74-42.51,20.71-64.85,20.71s-44.16-6.97-64.85-20.71
	c-18.7-12.42-35.63-29.79-50.32-51.63c-23.02-34.21-38.16-75.88-43.22-117.84c-1.22-10.02-1.86-20.05-1.89-30v-0.82
	c0-50.83,16.5-92.02,47.72-119.12c27.8-24.13,66.72-36.88,112.56-36.88s84.76,12.75,112.56,36.88
	C399.78,183.261,416.28,224.451,416.28,275.281z"/>
<path style="fill:#D86100;" d="M368.56,156.162c-27.8-24.13-66.72-36.88-112.56-36.88v377c22.34,0,44.16-6.97,64.85-20.71
	c18.7-12.42,35.63-29.79,50.32-51.63c23.02-34.21,38.16-75.88,43.22-117.84c1.22-10.02,1.86-20.05,1.89-30v-0.82
	C416.28,224.451,399.78,183.261,368.56,156.162z"/>
<path style="fill:#FFB74D;" d="M414.39,306.101c1.22-10.02,1.86-20.05,1.89-30h-83.096l-24.177-41.876l68.974-68.974
	c-1.4-1.51-2.86-2.99-4.35-4.43c-1.64-1.6-3.33-3.15-5.07-4.66c-4.27-3.71-8.81-7.15-13.59-10.32l-70.917,70.917h-56.106
	l-70.917-70.917c-4.78,3.17-9.32,6.61-13.59,10.32c-1.74,1.51-3.43,3.06-5.07,4.66c-1.49,1.44-2.95,2.92-4.35,4.43l68.974,68.974
	l-24.177,41.876H95.72c0.03,9.95,0.67,19.98,1.89,30h81.207l24.177,41.876l-67.564,67.564c1.75,2.85,3.55,5.65,5.4,8.4
	c3.91,5.8,7.97,11.29,12.18,16.45l12.24-12.25l62.697-62.698h56.104l62.298,62.307l12.64,12.64c4.21-5.16,8.27-10.65,12.18-16.45
	c1.85-2.75,3.66-5.56,5.4-8.41l-11.83-11.83l-55.733-55.725l24.177-41.875L414.39,306.101L414.39,306.101z M307.203,291.101
	l-25.602,44.343h-51.203l-25.602-44.343l25.602-44.343h51.203L307.203,291.101z"/>
<path style="fill:#FF9A00;" d="M414.39,306.101c1.22-10.02,1.86-20.05,1.89-30h-83.096l-24.177-41.876l68.974-68.974
	c-1.4-1.51-2.86-2.99-4.35-4.43c-1.64-1.6-3.33-3.15-5.07-4.66c-4.27-3.71-8.81-7.15-13.59-10.32l-70.917,70.917H256v30h25.602
	l25.602,44.343l-25.602,44.343H256v30h28.052l62.298,62.307l12.64,12.64c4.21-5.16,8.27-10.65,12.18-16.45
	c1.85-2.75,3.66-5.56,5.4-8.41l-11.83-11.83l-55.733-55.725l24.177-41.875L414.39,306.101L414.39,306.101z"/>
<g>
</g>
<g>
</g>
<g>
</g>
<g>
</g>
<g>
</g>
<g>
</g>
<g>
</g>
<g>
</g>
<g>
</g>
<g>
</g>
<g>
</g>
<g>
</g>
<g>
</g>
<g>
</g>
<g>
</g>
</svg>
